<svg xmlns="http://www.w3.org/2000/svg" viewBox="0 0 500 500">
  <path
    style="fill: #ebebeb"
    d="M0 382.4h500v.25H0zM416.78 398.49h33.12v.25h-33.12zM322.53 401.21h8.69v.25h-8.69zM396.59 389.21h19.19v.25h-19.19zM52.46 390.89h43.19v.25H52.46zM104.56 390.89h6.33v.25h-6.33zM131.47 395.11h93.68v.25h-93.68zM237 337.8H43.91a5.71 5.71 0 0 1-5.7-5.71V60.66a5.71 5.71 0 0 1 5.7-5.66H237a5.71 5.71 0 0 1 5.71 5.71v271.38a5.71 5.71 0 0 1-5.71 5.71ZM43.91 55.2a5.46 5.46 0 0 0-5.45 5.46v271.43a5.46 5.46 0 0 0 5.45 5.46H237a5.47 5.47 0 0 0 5.46-5.46V60.66A5.47 5.47 0 0 0 237 55.2ZM453.31 337.8h-193.1a5.72 5.72 0 0 1-5.71-5.71V60.66a5.72 5.72 0 0 1 5.71-5.66h193.1a5.71 5.71 0 0 1 5.69 5.66v271.43a5.71 5.71 0 0 1-5.69 5.71ZM260.21 55.2a5.47 5.47 0 0 0-5.46 5.46v271.43a5.47 5.47 0 0 0 5.46 5.46h193.1a5.47 5.47 0 0 0 5.46-5.46V60.66a5.47 5.47 0 0 0-5.46-5.46Z"
  />
  <path style="fill: #f0f0f0" d="M100.36 173.88h141.98v208.17H100.36z" />
  <path style="fill: #e0e0e0" d="M105.37 180.43h131.95v38.45H105.37z" />
  <path
    style="fill: #ebebeb"
    d="M105.37 186.65h7.5v32.22h-7.5zM141.62 186.65h7.5v32.22h-7.5z"
  />
  <path
    transform="rotate(-9.78 189.264 202.34)"
    style="fill: #ebebeb"
    d="M185.55 186.25h7.5v32.22h-7.5z"
  />
  <path
    style="fill: #ebebeb"
    d="M114.66 190.9h7.5v27.98h-7.5zM131.89 190.9h7.5v27.98h-7.5zM175.38 190.9h7.5v27.98h-7.5z"
  />
  <path
    transform="rotate(-12.53 158.295 204.379)"
    style="fill: #ebebeb"
    d="M154.59 190.42h7.5v27.98h-7.5z"
  />
  <path
    style="fill: #ebebeb"
    d="M124.89 185.05h3.75v33.82h-3.75zM169.47 185.05h3.75v33.82h-3.75z"
  />
  <path
    transform="rotate(180 171.35 244.19)"
    style="fill: #e0e0e0"
    d="M105.37 224.96h131.95v38.45H105.37z"
  />
  <path
    transform="rotate(180 233.575 247.3)"
    style="fill: #ebebeb"
    d="M229.83 231.19h7.5v32.22h-7.5z"
  />
  <path
    transform="rotate(180 197.33 247.3)"
    style="fill: #ebebeb"
    d="M193.58 231.19h7.5v32.22h-7.5z"
  />
  <path
    transform="rotate(-170.22 153.4 246.895)"
    style="fill: #ebebeb"
    d="M149.65 230.79h7.5v32.22h-7.5z"
  />
  <path
    transform="rotate(180 224.285 249.425)"
    style="fill: #ebebeb"
    d="M220.54 235.43h7.5v27.98h-7.5z"
  />
  <path
    transform="rotate(180 207.06 249.425)"
    style="fill: #ebebeb"
    d="M203.31 235.43h7.5v27.98h-7.5z"
  />
  <path
    transform="rotate(180 163.57 249.425)"
    style="fill: #ebebeb"
    d="M159.82 235.43h7.5v27.98h-7.5z"
  />
  <path
    transform="rotate(-167.47 184.37 248.94)"
    style="fill: #ebebeb"
    d="M180.61 234.95h7.5v27.98h-7.5z"
  />
  <path
    transform="rotate(180 215.93 246.5)"
    style="fill: #ebebeb"
    d="M214.06 229.59h3.75v33.82h-3.75z"
  />
  <path
    transform="rotate(180 171.35 246.5)"
    style="fill: #ebebeb"
    d="M169.47 229.59h3.75v33.82h-3.75z"
  />
  <path
    style="fill: #ebebeb"
    d="M105.37 231.19h7.5v32.22h-7.5zM114.66 235.43h7.5v27.98h-7.5zM131.89 235.43h7.5v27.98h-7.5zM124.89 229.59h3.75v33.82h-3.75z"
  />
  <path style="fill: #e0e0e0" d="M105.37 269.5h131.95v38.45H105.37z" />
  <path style="fill: #ebebeb" d="M181.11 275.72h7.5v32.22h-7.5z" />
  <path
    transform="rotate(-9.78 228.743 291.373)"
    style="fill: #ebebeb"
    d="M225.04 275.32h7.5v32.22h-7.5z"
  />
  <path
    style="fill: #ebebeb"
    d="M154.15 279.97h7.5v27.98h-7.5zM171.38 279.97h7.5v27.98h-7.5zM214.87 279.97h7.5v27.98h-7.5z"
  />
  <path
    transform="rotate(-12.53 197.792 293.435)"
    style="fill: #ebebeb"
    d="M194.08 279.49h7.5v27.98h-7.5z"
  />
  <path
    style="fill: #ebebeb"
    d="M164.38 274.12h3.75v33.82h-3.75zM208.96 274.12h3.75v33.82h-3.75z"
  />
  <path
    transform="rotate(-9.78 142.553 291.417)"
    style="fill: #ebebeb"
    d="M138.81 275.32h7.5v32.22h-7.5z"
  />
  <path style="fill: #ebebeb" d="M128.63 279.97h7.5v27.98h-7.5z" />
  <path
    transform="rotate(-12.53 111.553 293.416)"
    style="fill: #ebebeb"
    d="M107.84 279.49h7.5v27.98h-7.5z"
  />
  <path style="fill: #ebebeb" d="M122.73 274.12h3.75v33.82h-3.75z" />
  <path
    transform="rotate(180 88.11 278.235)"
    style="fill: #e0e0e0"
    d="M75.86 173.88h24.5v208.71h-24.5z"
  />
  <path
    d="M325.44 377.14h-20.81L315.57 288a7.94 7.94 0 0 1 7.67-6.83H414l-13.31 95.93Z"
    style="fill: #f5f5f5"
  />
  <path
    d="M391.44 377.14h20.81L423.2 288a5.92 5.92 0 0 0-6-6.83h-7.15a8 8 0 0 0-7.67 6.83Z"
    style="fill: #f0f0f0"
  />
  <path
    d="m383.78 377 3.77-43.1a4.1 4.1 0 0 1 3.57-3.72l1.55-.2a5.49 5.49 0 0 0 4.79-5l.69-7.86a5.51 5.51 0 0 0-5.49-6h34.78a5.51 5.51 0 0 1 5.49 6l-.69 7.86a5.49 5.49 0 0 1-4.79 5l-1.55.2a4.11 4.11 0 0 0-3.57 3.72l-3.77 43.1a6.09 6.09 0 0 1-6.06 5.55h-34.78a6.09 6.09 0 0 0 6.06-5.55ZM288.06 323.15a13.1 13.1 0 0 0-13.05-12h30.28a13.1 13.1 0 0 1 13 12l3 34.16h-30.24Z"
    style="fill: #e6e6e6"
  />
  <path
    d="M261.56 311.19H275a13.1 13.1 0 0 1 13.05 12l3 34.16h72.12l3-34.16a13.09 13.09 0 0 1 13-12h13.45a5.51 5.51 0 0 1 5.49 6l-.69 7.86a5.49 5.49 0 0 1-4.79 5l-1.55.2a4.1 4.1 0 0 0-3.57 3.72L383.78 377a6.09 6.09 0 0 1-6.06 5.55H276.5a6.09 6.09 0 0 1-6.06-5.55l-3.77-43.1a4.12 4.12 0 0 0-3.57-3.72l-1.55-.2a5.51 5.51 0 0 1-4.8-5l-.68-7.86a5.51 5.51 0 0 1 5.49-5.93Z"
    style="fill: #f0f0f0"
  />
  <path
    d="M102.16 163.48s-1.11-7.31 4.22-12 4.86-7.47 3.33-7.83-2.92 4.32-5.26 5.61c0 0-.08-6.68 2.3-9.13s3.63-8.8 1.36-8.91-2.49 3.76-3 6.51-3 6.61-3 6.61-.49-6-2-8.43 2.56-8.08 1-10.53-4.39 2.22-4.16 7.49 3.75 10.89 2.93 16.39c0 0-1.55-3.87-2.94-4.22s-2.8-2.9-3.73-3.85-2.11 2.33 0 5.37 7.49 11.19 6.67 17.77Z"
    style="fill: #e6e6e6"
  />
  <path
    d="m105.34 160.15 1.75 10.95a5.57 5.57 0 0 1-5.5 6.44h-1.86a5.57 5.57 0 0 1-5.5-6.44L96 160.15Z"
    style="fill: #e6e6e6"
  />
  <path
    transform="rotate(180 212.77 163.72)"
    style="fill: #ebebeb"
    d="M210.06 152.04h5.43v23.35h-5.43z"
  />
  <path
    transform="rotate(180 186.505 163.72)"
    style="fill: #ebebeb"
    d="M183.79 152.04h5.43v23.35h-5.43z"
  />
  <path
    transform="rotate(-170.22 154.67 163.426)"
    style="fill: #ebebeb"
    d="M151.95 151.75h5.43v23.35h-5.43z"
  />
  <path
    transform="rotate(180 206.04 165.255)"
    style="fill: #ebebeb"
    d="M203.33 155.12h5.43v20.27h-5.43z"
  />
  <path
    transform="rotate(180 193.555 165.255)"
    style="fill: #ebebeb"
    d="M190.84 155.12h5.43v20.27h-5.43z"
  />
  <path
    transform="rotate(180 162.04 165.255)"
    style="fill: #ebebeb"
    d="M159.33 155.12h5.43v20.27h-5.43z"
  />
  <path
    transform="rotate(-167.47 177.112 164.906)"
    style="fill: #ebebeb"
    d="M174.39 154.77h5.43v20.27h-5.43z"
  />
  <path
    transform="rotate(180 199.985 163.14)"
    style="fill: #ebebeb"
    d="M198.63 150.88h2.72v24.51h-2.72z"
  />
  <path
    transform="rotate(180 167.675 163.14)"
    style="fill: #ebebeb"
    d="M166.32 150.88h2.72v24.51h-2.72z"
  />
  <path
    style="fill: #ebebeb"
    d="M120.48 156.86h26.47v18.27h-26.47zM215.56 164.34h22.17v13.64h-22.17z"
  />
  <path style="fill: #ebebeb" d="M221.46 152.35h11.09v13.64h-11.09z" />
  <path style="fill: #e0e0e0" d="M391.44 134.3h26.37v109.88h-26.37z" />
  <path
    transform="rotate(180 365.675 189.39)"
    style="fill: #e0e0e0"
    d="M316.37 134.3h98.62v110.17h-98.62z"
  />
  <path
    transform="rotate(180 364.345 189.39)"
    style="fill: #f0f0f0"
    d="M313.19 134.3h102.32v110.17H313.19z"
  />
  <path
    transform="rotate(180 364.43 188.615)"
    style="fill: #fff"
    d="M317.56 137.82h93.74v101.6h-93.74z"
  />
  <path
    transform="rotate(180 318.425 188.615)"
    style="fill: #e0e0e0"
    d="M317.56 137.82h1.74v101.6h-1.74z"
  />
  <path
    transform="rotate(-90 365.275 212.245)"
    style="fill: #e0e0e0"
    d="M363.9 165.98h2.74v92.54h-2.74z"
  />
  <path
    transform="rotate(180 365.16 208.575)"
    style="fill: #f0f0f0"
    d="M317.56 206.28h95.21v4.6h-95.21z"
  />
  <ellipse cx="250" cy="416.24" rx="193.89" ry="11.32" style="fill: #f5f5f5" />
  <rect
    x="135.72"
    y="152.82"
    width="193.55"
    height="225.3"
    rx="7.32"
    style="fill: #407bff"
  />
  <rect
    x="135.72"
    y="152.82"
    width="193.55"
    height="225.3"
    rx="7.32"
    style="fill: #fff; isolation: isolate; opacity: 0.6000000000000001"
  />
  <path 
   style="fill: #fff" d="M167.08 256.15h130.84v22.4H167.08z" />
  <g style="opacity: 0.4">
    <path
      d="M178.78 269.53v.59h-4.54v-6.42h4.4v.58h-3.72v2.29h3.32v.57h-3.32v2.39ZM179.69 267.35h2.41v.56h-2.41ZM191.51 267.32v2.8h-.65v-2.74c0-1-.51-1.54-1.38-1.54a1.55 1.55 0 0 0-1.61 1.74v2.54h-.66v-2.74c0-1-.51-1.54-1.39-1.54a1.55 1.55 0 0 0-1.61 1.74v2.54h-.66v-4.83h.63v.88a2 2 0 0 1 1.77-.92 1.72 1.72 0 0 1 1.71 1 2.12 2.12 0 0 1 1.91-1 1.82 1.82 0 0 1 1.94 2.07ZM196.93 267.12v3h-.63v-.76a1.8 1.8 0 0 1-1.66.8c-1.09 0-1.76-.57-1.76-1.4s.48-1.37 1.86-1.37h1.53v-.29c0-.83-.46-1.28-1.36-1.28a2.48 2.48 0 0 0-1.61.57l-.29-.48a3 3 0 0 1 2-.66 1.72 1.72 0 0 1 1.92 1.87Zm-.66 1.55v-.79h-1.51c-.93 0-1.24.36-1.24.86s.45.91 1.22.91a1.53 1.53 0 0 0 1.53-.98ZM198.55 263.77a.47.47 0 0 1 .48-.46.46.46 0 0 1 .47.45.47.47 0 0 1-.47.48.47.47 0 0 1-.48-.47Zm.15 1.52h.65v4.83h-.65ZM201.16 263.31h.65v6.81h-.65Z"
      style="fill: #263238"
    />
  </g>
  <path style="fill: #fff" d="M167.08 286.75h130.84v22.4H167.08z" />
  <g style="opacity: 0.4">
    <path
      d="M179.26 296.53c0 1.37-1 2.2-2.62 2.2h-1.72v2h-.68v-6.42h2.4c1.63.02 2.62.85 2.62 2.22Zm-.68 0c0-1-.67-1.61-2-1.61h-1.7v3.21h1.7c1.33 0 2-.59 2-1.6ZM184.19 297.76v3h-.63V300a1.8 1.8 0 0 1-1.66.8c-1.09 0-1.76-.57-1.76-1.41s.48-1.39 1.86-1.39h1.53v-.3c0-.82-.47-1.27-1.37-1.27a2.44 2.44 0 0 0-1.6.57l-.3-.49a3.08 3.08 0 0 1 2-.65 1.72 1.72 0 0 1 1.93 1.9Zm-.65 1.54v-.79H182c-.93 0-1.23.37-1.23.87s.44.9 1.22.9a1.54 1.54 0 0 0 1.55-.98ZM185.29 300.2l.29-.51a3 3 0 0 0 1.72.54c.91 0 1.29-.31 1.29-.79 0-1.26-3.13-.27-3.13-2.17 0-.79.68-1.38 1.91-1.38a3.36 3.36 0 0 1 1.71.45l-.29.52a2.48 2.48 0 0 0-1.42-.41c-.87 0-1.26.34-1.26.8 0 1.3 3.13.32 3.13 2.17 0 .84-.73 1.38-2 1.38a3.2 3.2 0 0 1-1.95-.6ZM189.77 300.2l.3-.51a2.9 2.9 0 0 0 1.71.54c.92 0 1.29-.31 1.29-.79 0-1.26-3.12-.27-3.12-2.17 0-.79.68-1.38 1.9-1.38a3.31 3.31 0 0 1 1.71.45l-.28.52a2.53 2.53 0 0 0-1.43-.41c-.87 0-1.25.34-1.25.8 0 1.3 3.13.32 3.13 2.17 0 .84-.74 1.38-2 1.38a3.25 3.25 0 0 1-1.96-.6ZM201.91 295.93l-1.82 4.82h-.61L198 296.8l-1.52 3.95h-.61l-1.87-4.82h.62l1.52 4.1 1.55-4.1h.56l1.54 4.1 1.53-4.1ZM202.27 298.34a2.46 2.46 0 1 1 2.46 2.46 2.38 2.38 0 0 1-2.46-2.46Zm4.25 0a1.8 1.8 0 1 0-1.79 1.88 1.76 1.76 0 0 0 1.79-1.88ZM210.94 295.89v.63h-.16a1.56 1.56 0 0 0-1.62 1.77v2.46h-.65v-4.82h.62v.94a1.83 1.83 0 0 1 1.81-.98ZM216.47 294v6.8h-.62v-.95a2.1 2.1 0 0 1-1.86 1 2.46 2.46 0 0 1 0-4.91 2.09 2.09 0 0 1 1.83 1V294Zm-.64 4.39a1.8 1.8 0 1 0-1.79 1.88 1.76 1.76 0 0 0 1.79-1.93Z"
      style="fill: #263238"
    />
  </g>
  <path style="opacity: 0.2" d="M167.08 332h130.84v22.4H167.08z" />
  <g style="opacity: 0.5">
    <path
      d="M198.9 321.71h-2.14l-.46 1h-.42l1.75-3.83h.4l1.75 3.83h-.42Zm-.15-.33-.92-2.06-.92 2.06ZM200.34 318.67h.39v4.06h-.39ZM203.27 319.83v.38h-.1a.93.93 0 0 0-1 1.06v1.47h-.39v-2.88h.38v.56a1.08 1.08 0 0 1 1.11-.59ZM206.45 321.41H204a1.06 1.06 0 0 0 1.13 1 1.16 1.16 0 0 0 .89-.37l.21.25a1.52 1.52 0 0 1-2.62-1 1.39 1.39 0 0 1 1.41-1.46 1.37 1.37 0 0 1 1.4 1.46s.03.08.03.12Zm-2.41-.29h2a1 1 0 0 0-2 0ZM209.34 321v1.78H209v-.45a1.06 1.06 0 0 1-1 .48c-.65 0-1-.34-1-.84s.28-.82 1.11-.82h.89v-.17c0-.49-.28-.76-.82-.76a1.48 1.48 0 0 0-1 .34l-.17-.29a1.79 1.79 0 0 1 1.17-.39 1 1 0 0 1 1.16 1.12Zm-.38.92v-.48h-.91c-.56 0-.74.22-.74.52s.27.54.73.54a.94.94 0 0 0 .96-.63ZM213 318.67v4.06h-.37v-.57a1.23 1.23 0 0 1-1.11.6 1.47 1.47 0 0 1 0-2.93 1.28 1.28 0 0 1 1.1.57v-1.73Zm-.38 2.62a1.07 1.07 0 1 0-1.07 1.12 1.05 1.05 0 0 0 1.11-1.12ZM216.55 319.85l-1.44 3.23c-.24.56-.55.74-1 .74a1 1 0 0 1-.7-.26l.18-.29a.75.75 0 0 0 .53.22c.26 0 .43-.12.6-.49l.12-.27-1.29-2.88h.45l1.09 2.45 1.08-2.45ZM220.71 321v1.78h-.37v-.45a1.06 1.06 0 0 1-1 .48c-.65 0-1-.34-1-.84s.28-.82 1.11-.82h.91v-.17c0-.49-.27-.76-.81-.76a1.48 1.48 0 0 0-1 .34l-.18-.29a1.82 1.82 0 0 1 1.18-.39 1 1 0 0 1 1.16 1.12Zm-.39.92v-.48h-.9c-.56 0-.74.22-.74.52s.27.54.73.54a.92.92 0 0 0 .91-.63ZM228 321.06v1.67h-.38v-1.63c0-.61-.31-.92-.83-.92a.93.93 0 0 0-1 1v1.51h-.38v-1.59c0-.61-.31-.92-.84-.92a.93.93 0 0 0-1 1v1.51h-.39v-2.88h.37v.53a1.16 1.16 0 0 1 1.06-.55 1 1 0 0 1 1 .61 1.25 1.25 0 0 1 1.14-.61 1.08 1.08 0 0 1 1.25 1.27ZM231.54 321.41h-2.41a1.08 1.08 0 0 0 1.14 1 1.13 1.13 0 0 0 .88-.37l.22.25a1.45 1.45 0 0 1-1.11.47 1.42 1.42 0 0 1-1.51-1.47 1.4 1.4 0 1 1 2.8 0s-.01.08-.01.12Zm-2.41-.29h2.05a1 1 0 0 0-2.05 0ZM237.1 321.06v1.67h-.39v-1.63c0-.61-.3-.92-.82-.92a.92.92 0 0 0-1 1v1.51h-.39v-1.59c0-.61-.3-.92-.83-.92a.92.92 0 0 0-1 1v1.51h-.39v-2.88h.37v.53a1.15 1.15 0 0 1 1.06-.55 1 1 0 0 1 1 .61 1.25 1.25 0 0 1 1.14-.61 1.08 1.08 0 0 1 1.25 1.27ZM241.08 321.29a1.4 1.4 0 0 1-1.43 1.47 1.23 1.23 0 0 1-1.11-.6v.57h-.38v-4.06h.39v1.73a1.27 1.27 0 0 1 1.1-.57 1.39 1.39 0 0 1 1.43 1.46Zm-.39 0a1.07 1.07 0 1 0-1.07 1.12 1.05 1.05 0 0 0 1.07-1.12ZM244.39 321.41H242a1.06 1.06 0 0 0 1.13 1 1.13 1.13 0 0 0 .87-.41l.22.25a1.52 1.52 0 0 1-2.62-1 1.39 1.39 0 0 1 1.41-1.46 1.36 1.36 0 0 1 1.39 1.46Zm-2.41-.29h2a1 1 0 0 0-2 0ZM246.64 319.83v.38h-.09a.93.93 0 0 0-1 1.06v1.47h-.39v-2.88h.37v.56a1.09 1.09 0 0 1 1.11-.59ZM249.16 319.88c0-.4-.32-.67-.88-.67a1.3 1.3 0 0 0-1.05.44l-.29-.22a1.7 1.7 0 0 1 1.37-.57c.77 0 1.26.37 1.26 1 0 .93-1 1-1 1.76h-.41c0-.94 1-1.03 1-1.74Zm-1.08 2.59a.29.29 0 0 1 .57 0 .29.29 0 1 1-.57 0ZM251.87 318.9h.89v3.1h1.92v.72h-2.81ZM254.88 321.26a1.62 1.62 0 1 1 1.62 1.52 1.52 1.52 0 0 1-1.62-1.52Zm2.37 0a.75.75 0 1 0-.75.81.74.74 0 0 0 .75-.81Z"
    />
    <path
      d="M261.73 319.78v2.46a1.44 1.44 0 0 1-1.65 1.6 2.44 2.44 0 0 1-1.45-.41l.34-.61a1.77 1.77 0 0 0 1 .33c.6 0 .87-.27.87-.8v-.13a1.21 1.21 0 0 1-.93.37 1.43 1.43 0 1 1 0-2.85 1.18 1.18 0 0 1 1 .42v-.38Zm-.84 1.39a.71.71 0 0 0-.77-.73.73.73 0 1 0 0 1.45.71.71 0 0 0 .77-.72ZM264 318.9a.49.49 0 0 1 .53-.48.48.48 0 0 1 .53.46.53.53 0 0 1-1.06 0Zm.1.88h.85v3h-.85ZM268.74 321v1.69h-.85v-1.55c0-.48-.22-.7-.6-.7s-.71.25-.71.79v1.46h-.85v-3h.82v.35a1.29 1.29 0 0 1 1-.39 1.15 1.15 0 0 1 1.19 1.35Z"
    />
  </g>
  <path style="fill: #407bff" d="M167.08 330.63h130.84v22.4H167.08z" />
  <path
    d="M215.6 345.31 214 343h-2.38v2.33h-1.1v-7.67h3c2 0 3.19 1 3.19 2.68a2.42 2.42 0 0 1-1.68 2.42l1.82 2.57Zm0-5c0-1.1-.73-1.72-2.14-1.72h-1.86v3.45h1.86c1.38.01 2.11-.63 2.11-1.72ZM223.52 342.76h-4.71a2 2 0 0 0 2.1 1.7 2.18 2.18 0 0 0 1.68-.7l.58.68a3.17 3.17 0 0 1-5.42-2 2.85 2.85 0 0 1 2.92-3 2.8 2.8 0 0 1 2.87 3c0 .09-.01.22-.02.32Zm-4.71-.76h3.72a1.87 1.87 0 0 0-3.72 0ZM230.56 339.51v5c0 2.05-1.05 3-3 3a4.3 4.3 0 0 1-2.77-.86l.5-.81a3.57 3.57 0 0 0 2.24.75c1.37 0 2-.63 2-1.95v-.46a2.63 2.63 0 0 1-2.09.9 2.81 2.81 0 1 1 0-5.62 2.64 2.64 0 0 1 2.15 1v-.9Zm-1 2.75a2 2 0 1 0-2 1.89 1.86 1.86 0 0 0 1.97-1.89ZM232.38 337.71a.7.7 0 0 1 .71-.69.69.69 0 1 1 0 1.37.69.69 0 0 1-.71-.68Zm.19 1.8h1.05v5.8h-1.05ZM234.89 344.7l.44-.83a3.72 3.72 0 0 0 2 .6c1 0 1.38-.3 1.38-.79 0-1.3-3.67-.17-3.67-2.49 0-1 .93-1.74 2.42-1.74a4.2 4.2 0 0 1 2.11.53l-.45.83a3 3 0 0 0-1.67-.46c-.92 0-1.37.34-1.37.8 0 1.37 3.68.25 3.68 2.51 0 1-1 1.72-2.51 1.72a4.22 4.22 0 0 1-2.36-.68ZM244.38 345a2 2 0 0 1-1.27.41 1.66 1.66 0 0 1-1.84-1.82v-3.19h-1v-.86h1v-1.27h1v1.27H244v.86h-1.67v3.15a.85.85 0 0 0 .91 1 1.34 1.34 0 0 0 .82-.27ZM250.68 342.76H246a2 2 0 0 0 2.11 1.7 2.15 2.15 0 0 0 1.67-.7l.58.68a3.16 3.16 0 0 1-5.41-2 2.85 2.85 0 0 1 2.92-3 2.81 2.81 0 0 1 2.87 3 1.82 1.82 0 0 1-.06.32ZM246 342h3.73a1.88 1.88 0 0 0-3.73 0ZM255.29 339.45v1h-.24a1.73 1.73 0 0 0-1.83 2v2.89h-1.05v-5.8h1v1a2.2 2.2 0 0 1 2.12-1.09Z"
    style="fill: #fff"
  />
  <g style="opacity: 0.6000000000000001">
    <path
      d="m209.59 177.61.45-.94a4.28 4.28 0 0 0 2.77 1c1.45 0 2.07-.56 2.07-1.29 0-2-5.08-.76-5.08-3.87 0-1.3 1-2.4 3.21-2.4a5 5 0 0 1 2.7.74l-.4 1a4.31 4.31 0 0 0-2.3-.68c-1.43 0-2 .6-2 1.33 0 2 5.09.76 5.09 3.85 0 1.28-1 2.38-3.25 2.38a5 5 0 0 1-3.26-1.12ZM217.44 170.24a.76.76 0 0 1 .78-.75.75.75 0 0 1 .78.73.78.78 0 0 1-1.56 0Zm.2 2h1.16v6.36h-1.16ZM227.07 172.21v5.49c0 2.25-1.14 3.27-3.29 3.27a4.74 4.74 0 0 1-3-.95l.55-.89a3.85 3.85 0 0 0 2.45.83c1.5 0 2.18-.7 2.18-2.14v-.5a2.9 2.9 0 0 1-2.29 1 3.08 3.08 0 1 1 0-6.15 2.91 2.91 0 0 1 2.35 1v-1Zm-1.12 3a2.19 2.19 0 1 0-2.19 2.08 2.06 2.06 0 0 0 2.24-2.07ZM235.31 174.91v3.66h-1.16V175c0-1.25-.62-1.86-1.71-1.86a1.89 1.89 0 0 0-2 2.11v3.28h-1.15v-6.36h1.11v1a2.7 2.7 0 0 1 2.29-1 2.47 2.47 0 0 1 2.62 2.74ZM246.6 172.21v6.36h-1.09v-1a2.59 2.59 0 0 1-2.16 1 2.5 2.5 0 0 1-2.74-2.77v-3.66h1.15v3.53c0 1.24.63 1.87 1.72 1.87a1.88 1.88 0 0 0 2-2.11v-3.29ZM255.38 175.39a3.09 3.09 0 0 1-3.21 3.25 2.73 2.73 0 0 1-2.22-1v3.28h-1.15v-8.68h1.1v1a2.71 2.71 0 0 1 2.27-1.07 3.08 3.08 0 0 1 3.21 3.22Zm-1.16 0a2.14 2.14 0 1 0-2.15 2.24 2.11 2.11 0 0 0 2.15-2.24Z"
      style="fill: #263238"
    />
  </g>
  <path style="fill: #fff" d="M167.08 225.54h130.84v22.4H167.08z" />
  <g style="opacity: 0.4">
    <path
      d="M174.24 233.09h.68v5.83h3.59v.59h-4.27ZM183.16 236.52v3h-.62v-.75a1.84 1.84 0 0 1-1.66.8c-1.09 0-1.76-.57-1.76-1.41s.47-1.36 1.86-1.36h1.53v-.29c0-.83-.47-1.28-1.37-1.28a2.44 2.44 0 0 0-1.6.57l-.3-.49a3.11 3.11 0 0 1 2-.65 1.72 1.72 0 0 1 1.92 1.86Zm-.65 1.54v-.79H181c-.94 0-1.24.37-1.24.87s.45.9 1.22.9a1.54 1.54 0 0 0 1.53-.98ZM184.26 239l.29-.51a3 3 0 0 0 1.72.54c.92 0 1.29-.31 1.29-.79 0-1.26-3.12-.27-3.12-2.17 0-.79.67-1.38 1.9-1.38a3.31 3.31 0 0 1 1.71.45l-.29.52a2.48 2.48 0 0 0-1.42-.41c-.87 0-1.25.34-1.25.8 0 1.3 3.12.32 3.12 2.17 0 .84-.73 1.38-2 1.38a3.24 3.24 0 0 1-1.95-.6ZM192 239.22a1.57 1.57 0 0 1-1 .34 1.28 1.28 0 0 1-1.41-1.41v-2.91h-.87v-.55h.87v-1.06h.65v1.06h1.46v.55h-1.46v2.88a.77.77 0 0 0 .83.88 1.07 1.07 0 0 0 .72-.25ZM201 233.09v6.42h-.56l-4.12-5.21v5.21h-.68v-6.42h.56l4.13 5.21v-5.21ZM206.64 236.52v3H206v-.75a1.82 1.82 0 0 1-1.66.8c-1.09 0-1.76-.57-1.76-1.41s.48-1.36 1.87-1.36H206v-.29c0-.83-.47-1.28-1.37-1.28a2.44 2.44 0 0 0-1.6.57l-.3-.49a3.08 3.08 0 0 1 2-.65 1.72 1.72 0 0 1 1.91 1.86Zm-.65 1.54v-.79h-1.52c-.93 0-1.23.37-1.23.87s.45.9 1.22.9a1.54 1.54 0 0 0 1.54-.98ZM216.37 236.71v2.8h-.65v-2.73c0-1-.52-1.54-1.39-1.54a1.55 1.55 0 0 0-1.61 1.74v2.53h-.65v-2.73c0-1-.52-1.54-1.4-1.54a1.55 1.55 0 0 0-1.61 1.74v2.53h-.65v-4.82h.59v.88a2 2 0 0 1 1.77-.92 1.74 1.74 0 0 1 1.72 1 2.1 2.1 0 0 1 1.9-1 1.82 1.82 0 0 1 1.98 2.06ZM222.36 237.3h-4a1.79 1.79 0 0 0 1.9 1.68 1.91 1.91 0 0 0 1.48-.63l.36.42a2.55 2.55 0 0 1-4.39-1.67 2.33 2.33 0 0 1 2.36-2.45 2.3 2.3 0 0 1 2.34 2.45c-.04.06-.05.13-.05.2Zm-4-.48h3.42a1.71 1.71 0 0 0-3.42 0Z"
      style="fill: #263238"
    />
  </g>
  <path style="fill: #fff" d="M167.08 194.94h130.84v22.4H167.08z" />
  <g style="opacity: 0.4">
    <path
      d="M174.92 203.08v2.52h3.32v.59h-3.32v2.72h-.68v-6.42h4.4v.59ZM179.67 202.56a.48.48 0 1 1 .47.47.47.47 0 0 1-.47-.47Zm.14 1.53h.65v4.82h-.65ZM184.71 204.05v.63h-.16a1.56 1.56 0 0 0-1.62 1.78v2.46h-.65v-4.82h.62v.9a1.83 1.83 0 0 1 1.81-.95ZM185.25 208.36l.29-.52a2.89 2.89 0 0 0 1.72.55c.92 0 1.29-.32 1.29-.79 0-1.26-3.12-.27-3.12-2.18 0-.78.67-1.37 1.9-1.37a3.21 3.21 0 0 1 1.71.45l-.29.52a2.48 2.48 0 0 0-1.42-.41c-.87 0-1.25.34-1.25.8 0 1.3 3.12.32 3.12 2.17 0 .83-.73 1.37-2 1.37a3.24 3.24 0 0 1-1.95-.59ZM193 208.62a1.62 1.62 0 0 1-1 .33 1.27 1.27 0 0 1-1.41-1.4v-2.91h-.87v-.55h.87V203h.65v1.06h1.46v.55h-1.46v2.87a.78.78 0 0 0 .83.89 1.12 1.12 0 0 0 .72-.25ZM202 202.49v6.42h-.56l-4.12-5.21v5.21h-.68v-6.42h.56l4.13 5.21v-5.21ZM207.63 205.92v3H207v-.75a1.8 1.8 0 0 1-1.65.79c-1.1 0-1.77-.56-1.77-1.4s.48-1.36 1.87-1.36H207v-.3c0-.82-.47-1.27-1.37-1.27a2.44 2.44 0 0 0-1.6.57l-.3-.49a3.09 3.09 0 0 1 2-.65 1.71 1.71 0 0 1 1.9 1.86Zm-.65 1.54v-.79h-1.52c-.93 0-1.23.37-1.23.86s.45.91 1.22.91a1.55 1.55 0 0 0 1.55-.98ZM217.36 206.11v2.8h-.65v-2.73c0-1-.52-1.54-1.39-1.54a1.55 1.55 0 0 0-1.61 1.74v2.53h-.65v-2.73c0-1-.52-1.54-1.4-1.54a1.55 1.55 0 0 0-1.61 1.74v2.53h-.65v-4.82h.6v.91a2 2 0 0 1 1.77-.92 1.74 1.74 0 0 1 1.72 1 2.08 2.08 0 0 1 1.9-1 1.82 1.82 0 0 1 1.97 2.03ZM223.35 206.7h-4a1.79 1.79 0 0 0 1.9 1.68 1.89 1.89 0 0 0 1.48-.64l.36.43a2.55 2.55 0 0 1-4.39-1.67 2.33 2.33 0 0 1 2.36-2.45 2.3 2.3 0 0 1 2.34 2.45c-.04.05-.05.12-.05.2Zm-4-.49h3.42a1.71 1.71 0 0 0-3.42 0Z"
      style="fill: #263238"
    />
  </g>
  <path
    d="M117.85 385.28h-.95c0-1.41 1.17-34.45 6.92-40 5.91-5.75 12.86-.08 12.92 0l-.6.72c-.26-.21-6.37-5.17-11.67 0-5.47 5.21-6.61 38.94-6.62 39.28Z"
    style="fill: #407bff"
  />
  <path
    d="m117.37 391.91-.94-.09c0-.4 3.72-40.12-10.67-56.64l.71-.62c14.66 16.83 10.94 56.95 10.9 57.35Z"
    style="fill: #407bff"
  />
  <path
    d="M117.83 387.67c-.12-1.88-2.89-46 8.17-56.2l.64.7c-10.73 9.86-7.9 55-7.87 55.43Z"
    style="fill: #407bff"
  />
  <path
    d="M116.43 387.64c0-.3-.34-30-8.21-34.47a5 5 0 0 0-4.58-.48c-4.61 1.91-7.06 10.71-7.09 10.8l-.91-.25c.1-.38 2.6-9.33 7.64-11.42a5.89 5.89 0 0 1 5.41.53c8.33 4.77 8.68 34 8.69 35.28ZM119.67 387.66c-.06-1-1.27-23.44 5.1-31.77 1.7-2.21 3.58-3.26 5.62-3.11 4.53.31 8 6.45 8.19 6.71l-.82.47c0-.06-3.42-6-7.44-6.24-1.69-.13-3.31.8-4.8 2.75-6.16 8-4.92 30.91-4.91 31.14Z"
    style="fill: #407bff"
  />
  <path
    d="m118.4 390.77-.94-.07c0-.54 4-54.12-2.6-63.06l.76-.56c6.82 9.22 2.95 61.47 2.78 63.69ZM101.45 357.15s4.08 1.51 2.87 5.06-14.13 9.4-14.13 9.4-5.41-4.95-.44-13 11.59-4 11.7-1.46Z"
    style="fill: #407bff"
  />
  <path
    d="M101.45 357.15s4.08 1.51 2.87 5.06-14.13 9.4-14.13 9.4-5.41-4.95-.44-13 11.59-4 11.7-1.46Z"
    style="isolation: isolate; opacity: 0.2"
  />
  <path
    d="M119.2 350.39s-4.35-.18-4.6 3.56 9.4 14.12 9.4 14.12 6.9-2.5 5.42-11.85-9.14-8.14-10.22-5.83Z"
    style="fill: #407bff"
  />
  <path
    d="M119.2 350.39s-4.35-.18-4.6 3.56 9.4 14.12 9.4 14.12 6.9-2.5 5.42-11.85-9.14-8.14-10.22-5.83Z"
    style="isolation: isolate; opacity: 0.2"
  />
  <path
    d="M122.88 332.45s-2.9-.31-2.67-2.07 11.27-6.31 17.78 1c0 0-4.17 7.16-10.19 7.26s-4.92-6.19-4.92-6.19Z"
    style="fill: #407bff"
  />
  <path
    d="M122.88 332.45s-2.9-.31-2.67-2.07 11.27-6.31 17.78 1c0 0-4.17 7.16-10.19 7.26s-4.92-6.19-4.92-6.19Z"
    style="isolation: isolate; opacity: 0.2"
  />
  <path
    d="M117.48 328.16s2.62 1.27 3.36-.35-6.23-11.31-15.64-8.52c0 0-.25 8.28 4.81 11.55s7.47-2.68 7.47-2.68Z"
    style="fill: #407bff"
  />
  <path
    d="M117.48 328.16s2.62 1.27 3.36-.35-6.23-11.31-15.64-8.52c0 0-.25 8.28 4.81 11.55s7.47-2.68 7.47-2.68Z"
    style="isolation: isolate; opacity: 0.2"
  />
  <path
    d="M131.2 355.73s-2-1.62.16-2.41 12.75-.56 12.86 9.93c0 0-12.34 2.05-13.86-1.95s.84-5.57.84-5.57Z"
    style="fill: #407bff"
  />
  <path
    d="M131.2 355.73s-2-1.62.16-2.41 12.75-.56 12.86 9.93c0 0-12.34 2.05-13.86-1.95s.84-5.57.84-5.57Z"
    style="isolation: isolate; opacity: 0.2"
  />
  <path
    d="M106 332.19s2-1.62-.16-2.4-12.75-.57-12.86 9.92c0 0 12.34 2.06 13.86-1.94s-.84-5.58-.84-5.58Z"
    style="fill: #407bff"
  />
  <path
    d="M106 332.19s2-1.62-.16-2.4-12.75-.57-12.86 9.92c0 0 12.34 2.06 13.86-1.94s-.84-5.58-.84-5.58Z"
    style="isolation: isolate; opacity: 0.2"
  />
  <path
    d="M112.56 340.64s.18-2-1.41-1.19-7.1 6.73-1.38 12.38c0 0 7.71-5.71 6.32-8.68s-3.53-2.51-3.53-2.51Z"
    style="fill: #407bff"
  />
  <path
    d="M112.56 340.64s.18-2-1.41-1.19-7.1 6.73-1.38 12.38c0 0 7.71-5.71 6.32-8.68s-3.53-2.51-3.53-2.51Z"
    style="isolation: isolate; opacity: 0.2"
  />
  <path
    d="M133 343.44s-1.2-1.57.56-1.76 9.6 1.9 7.77 9.74c0 0-9.56-.72-10-4s1.67-3.98 1.67-3.98Z"
    style="fill: #407bff"
  />
  <path
    d="M133 343.44s-1.2-1.57.56-1.76 9.6 1.9 7.77 9.74c0 0-9.56-.72-10-4s1.67-3.98 1.67-3.98Z"
    style="isolation: isolate; opacity: 0.2"
  />
  <path
    style="fill: #263238"
    d="M102.16 416.72h30.91l4.11-30.06H98.05l4.11 30.06z"
  />
  <path
    style="fill: #fff; isolation: isolate; opacity: 0.2"
    d="M102.16 416.72h30.91l4.11-30.06H98.05l4.11 30.06z"
  />
  <path
    d="M141.06 384.22v2.86a3.46 3.46 0 0 1-3.46 3.46H97.25a3.46 3.46 0 0 1-3.46-3.46v-2.86Z"
    style="fill: #263238"
  />
  <path
    d="M398.62 99.31h-28.73a8.84 8.84 0 0 0-8.84 8.84v25a8.84 8.84 0 0 0 8.84 8.85h8.39l-2 7.89 8-7.89h14.39a8.85 8.85 0 0 0 8.85-8.85v-25a8.84 8.84 0 0 0-8.9-8.84Z"
    style="fill: #407bff"
  />
  <path
    d="M398.62 99.31h-28.73a8.84 8.84 0 0 0-8.84 8.84v25a8.84 8.84 0 0 0 8.84 8.85h8.39l-2 7.89 8-7.89h14.39a8.85 8.85 0 0 0 8.85-8.85v-25a8.84 8.84 0 0 0-8.9-8.84Z"
    style="fill: #fff; opacity: 0.7000000000000001"
  />
  <circle cx="384.26" cy="120.55" r="11.15" style="fill: #fff" />
  <path
    d="M384.26 106.29a14.26 14.26 0 1 0 14.26 14.26 14.25 14.25 0 0 0-14.26-14.26Zm8.09 10-8.59 10.12a1.28 1.28 0 0 1-1 .46 1.3 1.3 0 0 1-1-.46l-5.59-6.59a1.31 1.31 0 1 1 2-1.69l4.59 5.41 7.59-8.94a1.31 1.31 0 0 1 2 1.69ZM393.64 253.56s-17.41-2.2-43.79 5c0 0-4.24-47.14-3.74-53.62s40.73-4.58 40.73-4.58 1 18.87 3.62 30.25 4.54 20.76 3.18 22.95Z"
    style="fill: #407bff"
  />
  <path
    d="M393.64 253.56s-17.41-2.2-43.79 5c0 0-4.24-47.14-3.74-53.62s40.73-4.58 40.73-4.58 1 18.87 3.62 30.25 4.54 20.76 3.18 22.95Z"
    style="opacity: 0.2"
  />
  <path
    style="fill: #e4897b"
    d="m337.13 409.62 7.1 2.01 1.69-11.05.91-5.91-7.1-2.01-1.21 7.92-1.39 9.04zM377.95 410.2l7.32.97.07-10.59.05-6.58-7.33-.96-.05 7.54-.06 9.62z"
  />
  <path
    style="opacity: 0.2"
    d="m378.06 393.04-.05 7.54h7.33l.05-6.58-7.33-.96zM338.52 400.58h7.4l.91-5.91-7.1-2.01-1.21 7.92z"
  />
  <path
    d="m305.61 208.81-7.05-2.08 1.29 8.05s6.4 1.47 7-1.86ZM291.52 208.6l3.46 6.54 4.87-.36-1.29-8.05-7.04 1.87z"
    style="fill: #e4897b"
  />
  <path
    style="fill: #e4897b"
    d="m315.34 210.87-11.58-2.59-1.05 5.62 10.51 2.56 2.12-5.59z"
  />
  <path
    d="m350.37 205.79-.68.81c-1.46 1.71-5 5.84-8.69 9.4-3 2.9-6 5.43-8 5.94-5.67 1.46-26.28-4.61-26.28-4.61l2.13-8.36s19.2 2.55 20.69 2.55c1.13 0 12.81-16.92 15.64-18.31Z"
    style="fill: #407bff"
  />
  <path
    d="M349.69 206.6c-1.46 1.71-5 5.84-8.69 9.4.74-5.86 2.89-11.24 5.72-14.64a5.28 5.28 0 0 1 .9-.88Z"
    style="opacity: 0.2"
  />
  <path
    d="m337.22 408.51 8.06-.21a.64.64 0 0 1 .64.48l1.7 6.49a1.07 1.07 0 0 1-1 1.34c-2.91 0-7.12 0-10.77.07-4.28.12-7-.09-12 0-3 .08-4-2.94-2.72-3.25 5.73-1.42 9.48-1.14 14.36-4.34a3.49 3.49 0 0 1 1.73-.58Z"
    style="fill: #263238"
  />
  <path
    d="M336.52 409.55c-1.18.26-3.28.61-4.12-.08a1 1 0 0 1-.36-.84.54.54 0 0 1 .27-.47c.89-.53 3.9.9 4.25 1.06a.19.19 0 0 1 .1.17.17.17 0 0 1-.14.16Zm-4-1.11h-.06a.22.22 0 0 0-.11.19.65.65 0 0 0 .23.55c.47.39 1.69.43 3.31.11-1.17-.49-2.8-1.06-3.35-.85Z"
    style="fill: #407bff"
  />
  <path
    d="M336.52 409.55h-.12c-.91-.38-2.73-1.92-2.63-2.75 0-.2.16-.45.64-.51a1.35 1.35 0 0 1 1 .27c1 .75 1.23 2.72 1.25 2.8a.18.18 0 0 1-.07.16Zm-2.24-2.87c-.15.05-.16.13-.16.16-.06.5 1.18 1.72 2.11 2.24a4 4 0 0 0-1.06-2.24.9.9 0 0 0-.72-.2.61.61 0 0 0-.17.04Z"
    style="fill: #407bff"
  />
  <path
    d="m378.24 408.51 8.06-.21a.65.65 0 0 1 .65.48l1.69 6.49a1.06 1.06 0 0 1-1 1.34c-2.91 0-7.12 0-10.78.07-4.27.12-7-.09-12 0-3 .08-4-2.94-2.72-3.25 5.73-1.42 9.47-1.14 14.35-4.34a3.49 3.49 0 0 1 1.75-.58Z"
    style="fill: #263238"
  />
  <path
    d="M377.55 409.55c-1.18.26-3.29.61-4.12-.08a1 1 0 0 1-.36-.84.54.54 0 0 1 .27-.47c.88-.53 3.9.9 4.24 1.06a.16.16 0 0 1 .1.17.18.18 0 0 1-.13.16Zm-4-1.11h-.06a.2.2 0 0 0-.1.19.63.63 0 0 0 .23.55c.47.39 1.68.43 3.31.11-1.19-.49-2.82-1.06-3.37-.85Z"
    style="fill: #407bff"
  />
  <path
    d="M377.55 409.55h-.13c-.9-.38-2.73-1.92-2.62-2.75 0-.2.15-.45.63-.51a1.33 1.33 0 0 1 1 .27 5 5 0 0 1 1.25 2.8.16.16 0 0 1-.07.16Zm-2.25-2.87c-.14.05-.15.13-.15.16-.07.5 1.18 1.72 2.11 2.24a4.11 4.11 0 0 0-1.06-2.24.91.91 0 0 0-.72-.2Z"
    style="fill: #407bff"
  />
  <path
    d="M393.05 249.26c3.88 16.81-2.78 149.06-2.78 149.06h-12.86l-5.5-110.21-20.25 110.21-13.75-1c9-85.38 16.93-136.35 16.93-136.35v-6.44Z"
    style="fill: #263238"
  />
  <path
    d="m337.91 397.32 13.75 1 15.94-86.76 4.31-23.45 5.5 110.21h12.86s6.66-132.25 2.78-149.06l-38.23 5.27v6.44s-7.92 50.97-16.91 136.35Z"
    style="fill: #fff; opacity: 0.4"
  />
  <path
    d="M386.12 187a162.35 162.35 0 0 0 .61 24.1c.54 5.6 1.28 10.89 2.07 15.66 1.85 11.19 3.95 19.58 4.25 22.51l-38.23 5.27c-13.94-39-8.69-61.66-8.69-61.66a74.82 74.82 0 0 1 8.77-3c.63-.17 1.27-.33 1.93-.48a143.19 143.19 0 0 1 16.25-2.24c1-.09 2.09-.16 3.11-.21 5.22-.26 9.93.05 9.93.05Z"
    style="fill: #263238"
  />
  <path
    d="M365.66 169.45c.28 5.35.85 15.39 5.3 17.94 0 0-2.77 5.27-8.76 5.81-4.53.4-4.23-4.07-4.23-4.07 2.62-1.95 2-5.26 0-9Z"
    style="fill: #e4897b"
  />
  <path
    d="m362.52 173.81-4.52 6.32a17.4 17.4 0 0 1 1.2 2.7c2.1-.84 4.51-4 4.16-6.29a7.8 7.8 0 0 0-.84-2.73Z"
    style="opacity: 0.2"
  />
  <path
    d="M346.16 158.68c-.87 2.78-.39 8.48 3.48 6.63s-1.98-11.4-3.48-6.63Z"
    style="fill: #263238"
  />
  <path
    d="M366.16 162.44c.43 7.13 1 11.28-2.11 15.32-4.73 6.07-13.89 3.81-16.45-3.07-2.3-6.2-2.61-16.82 4-20.42a9.86 9.86 0 0 1 14.56 8.17Z"
    style="fill: #e4897b"
  />
  <path
    d="M361.16 158.56v-8s8.48-.63 8.1 3.71c4.7 2.33 2.48 9.64-3.83 13.22-3.46-2.77-3.06-9.43-3.06-9.43-.37.19-.79.35-1.21.5Z"
    style="fill: #263238"
  />
  <path
    d="M369.61 168a6.65 6.65 0 0 1-2.85 4.31c-2 1.31-3.73-.3-3.8-2.55-.06-2 .89-5.16 3.19-5.56a3.08 3.08 0 0 1 3.46 3.8Z"
    style="fill: #e4897b"
  />
  <path
    d="M355.63 165.62c.07.58-.18 1.08-.56 1.12s-.74-.39-.81-1 .18-1.08.55-1.12.75.38.82 1ZM349.09 166.35c.07.58-.18 1.08-.56 1.12s-.74-.39-.81-1 .18-1.08.56-1.12.72.42.81 1Z"
    style="fill: #263238"
  />
  <path
    d="M351.2 166.4a20.13 20.13 0 0 1-2.23 5.08 3.44 3.44 0 0 0 2.81.15Z"
    style="fill: #de5753"
  />
  <path
    d="M355.15 173.49a5.86 5.86 0 0 1-.75.14.17.17 0 1 1 0-.34 4.6 4.6 0 0 0 3.52-2.2.16.16 0 0 1 .22-.08.17.17 0 0 1 .08.23 4.71 4.71 0 0 1-3.07 2.25ZM357.39 163.29a.36.36 0 0 1-.34-.1 2.77 2.77 0 0 0-2.31-.89.33.33 0 0 1-.4-.27.34.34 0 0 1 .27-.4 3.42 3.42 0 0 1 2.93 1.09.33.33 0 0 1 0 .48.4.4 0 0 1-.15.09ZM346 164.42a.28.28 0 0 1-.2 0 .34.34 0 0 1-.21-.43 3.35 3.35 0 0 1 2.21-2.18.34.34 0 0 1 .17.66 2.61 2.61 0 0 0-1.73 1.74.33.33 0 0 1-.24.21ZM364.92 161.52s-5-1.83-7.28-4.73c0 0-4.54 1.19-5.47 3a2.26 2.26 0 0 1-.39-3s-3.4.72-4.07 3a2.86 2.86 0 0 1-1.6-3s-1.51.57-2 3c0 0-3.75-7.82 8.64-10.06a9.24 9.24 0 0 0-2.91-.49s8.65-3.49 15.5-.3 5.66 9.37-.42 12.58Z"
    style="fill: #263238"
  />
  <path
    d="m396 256-12 1.6s-4.95-34.59-7.13-45.76V188l6.27-1.65L388 188a117 117 0 0 1 3.07 14.6c.59 3.74 1.12 7.74 1.59 11.79.65 5.52 1.19 11.14 1.65 16.4.72 8.49 1.2 16 1.46 20.59.15 2.88.23 4.62.23 4.62Z"
    style="fill: #407bff"
  />
  <path
    d="M376.88 211.82s1-16.83 6.27-25.51c0 0-.13-2.48-1.18-2.88s-5.09 2-5.09 2-2.51-1.72-3.06-.92-1.89 6.12 3.06 27.31Z"
    style="fill: #407bff"
  />
  <path
    d="M376.88 211.82s1-16.83 6.27-25.51c0 0-.13-2.48-1.18-2.88s-5.09 2-5.09 2-2.51-1.72-3.06-.92-1.89 6.12 3.06 27.31Z"
    style="fill: #fff; opacity: 0.7000000000000001"
  />
  <path
    d="m349.6 260.61 1.37 1s-2-11.15-1.18-39.35c0-1.36.09-2.67.14-3.92 1-23.86 4.72-28.2 5-28.46l-3.46 1.18-6.27 2.16c-1.89 20.35 4.4 67.39 4.4 67.39Z"
    style="fill: #407bff"
  />
  <path
    d="M350.14 214.23s-3.46-16.36-2.43-22 4.72-3.13 4.72-3.13 3.39-2.74 4.4.28c0 0-4.66 3.28-6.69 24.85Z"
    style="fill: #407bff"
  />
  <path
    d="M350.14 214.23s-3.46-16.36-2.43-22 4.72-3.13 4.72-3.13 3.39-2.74 4.4.28c0 0-4.66 3.28-6.69 24.85Z"
    style="fill: #fff; opacity: 0.7000000000000001"
  />
  <path
    d="M392.64 214.35c-5.12-2.87-5.8-10.36-5.8-10.36.31-.12 2.21-.77 4.21-1.43.59 3.74 1.12 7.74 1.59 11.79ZM367.6 311.56l4.31-23.45-.83-12.41s-5.91 21.52-3.48 35.86ZM395.75 251.34c-3.22-.22-6-.43-6-.43l-.61-13.09a4.65 4.65 0 0 1 3.37-.62 36.82 36.82 0 0 0 1.79-6.45c.7 8.49 1.19 16.01 1.45 20.59Z"
    style="opacity: 0.2"
  />
  <path
    style="fill: #e4897b"
    d="m396.85 230.74-6.27 10.07 4.96 2.85 5.89-9.07-4.58-3.85z"
  />
  <path
    d="M387.73 187.84c4.22.46 22.16 25.08 22.95 32.5s-10.54 20.23-10.54 20.23l-7.56-4.45s7.68-11.81 8.08-15-14.05-16.08-14.05-16.08a29.11 29.11 0 0 1-1.78-9.26c-.2-5.42 2.9-7.94 2.9-7.94ZM389.13 237.83s6.45 1.38 9.05 5.44c0 0-2.7 8.45-4.63 9.37s-6.71.92-6.71.92-.31-9.4 2.29-15.73Z"
    style="fill: #407bff"
  />
</svg>
