
<svg xmlns="http://www.w3.org/2000/svg" viewBox="0 0 500 500"><path style="fill:#ebebeb" d="M0 382.4h500v.25H0zM416.78 398.49h33.12v.25h-33.12zM322.53 401.21h8.69v.25h-8.69zM396.59 389.21h19.19v.25h-19.19zM52.46 390.89h43.19v.25H52.46zM104.56 390.89h6.33v.25h-6.33zM131.47 395.11h93.68v.25h-93.68zM237 337.8H43.91a5.71 5.71 0 0 1-5.7-5.71V60.66a5.71 5.71 0 0 1 5.7-5.66H237a5.71 5.71 0 0 1 5.71 5.71v271.38a5.71 5.71 0 0 1-5.71 5.71ZM43.91 55.2a5.46 5.46 0 0 0-5.45 5.46v271.43a5.46 5.46 0 0 0 5.45 5.46H237a5.47 5.47 0 0 0 5.46-5.46V60.66A5.47 5.47 0 0 0 237 55.2ZM453.31 337.8h-193.1a5.72 5.72 0 0 1-5.71-5.71V60.66a5.72 5.72 0 0 1 5.71-5.66h193.1a5.71 5.71 0 0 1 5.69 5.66v271.43a5.71 5.71 0 0 1-5.69 5.71ZM260.21 55.2a5.47 5.47 0 0 0-5.46 5.46v271.43a5.47 5.47 0 0 0 5.46 5.46h193.1a5.47 5.47 0 0 0 5.46-5.46V60.66a5.47 5.47 0 0 0-5.46-5.46Z"/><path d="M81.56 365.34c-.24-2.86.15-6.56 3.49-7.66 5.65-1.86 9-6.24 8.81-11.19s5.76-9.77 10.22-5.13 3.87-3.57 9.82-5.56 11 2.84 9.36 7.27 4.25 7.18 11.28 3.42 14.76 3.08 13.27 8.43-.27 5.95 4.18 4.17c3.6-1.44 9.48 1.58 10.13 6.25ZM362.07 365.34c-.27-2.26-.15-5.56 2.65-6.49 4.39-1.45 7-4.85 6.85-8.69s4.47-7.58 7.93-4 3-2.77 7.62-4.32 8.54 2.21 7.27 5.64 3.3 5.58 8.75 2.66 11.46 2.39 10.31 6.55-.21 4.62 3.24 3.23c2.93-1.17 7.79 1.47 7.9 5.4Z" style="fill:#e0e0e0"/><path d="M390.82 365.34H288.11c-1.44-4.82 2.29-10.6 6.36-11.41 5-1 10-9.8 10.27-15.4S314 315.7 328 326.34s9.75 1.56 19.87-1.43 16.52 5.61 12.08 12.07c0 0 10.17-2.55 14.36 6.95s0 15.4 0 15.4 12.83-.33 16.51 6.01Z" style="fill:#e0e0e0"/><path d="M204.25 95.77a4.83 4.83 0 0 0-6.25-4.63 10.28 10.28 0 0 0-10.13-11.71 9.74 9.74 0 0 0-1.88.18 8.94 8.94 0 0 0-16.58 4.52h-.15a8.24 8.24 0 0 0 0 16.48h30.26a4.82 4.82 0 0 0 4.73-4.84ZM383.48 124.25a4.83 4.83 0 0 0-6.21-4.63 10.21 10.21 0 0 0-10.12-11.71 9.77 9.77 0 0 0-1.89.18 8.94 8.94 0 0 0-16.58 4.52h-.14a8.24 8.24 0 0 0 0 16.48h30.25a4.82 4.82 0 0 0 4.69-4.84ZM273.87 110.24a3 3 0 0 0-3-3 3.08 3.08 0 0 0-.86.12 5.53 5.53 0 0 0 .07-.92 6.36 6.36 0 0 0-6.36-6.36 6.45 6.45 0 0 0-1.17.11 5.56 5.56 0 0 0-10.32 2.81h-.09a5.12 5.12 0 1 0 0 10.24H271a3 3 0 0 0 2.87-3ZM430.74 104.37a3 3 0 0 0-3-3 2.71 2.71 0 0 0-.86.13 7 7 0 0 0 .06-.93 6.35 6.35 0 0 0-6.35-6.35 6.56 6.56 0 0 0-1.18.1 5.55 5.55 0 0 0-10.3 2.81H409a5.13 5.13 0 0 0 0 10.25h18.81a3 3 0 0 0 2.93-3.01ZM104.92 122.52a3 3 0 0 0-3-3 2.71 2.71 0 0 0-.86.13 7.14 7.14 0 0 0 .07-.93 6.36 6.36 0 0 0-6.36-6.36 6.56 6.56 0 0 0-1.18.11 5.55 5.55 0 0 0-10.3 2.81h-.09a5.12 5.12 0 1 0 0 10.24H102a3 3 0 0 0 2.92-3Z" style="fill:#f5f5f5"/><path d="M380.75 208.15a9.2 9.2 0 0 0 .28-1.87c.23-3.9 4-3.28 7.11-3.81 2.47-.41-4.07-6.65.91-8.67a4.33 4.33 0 0 0 2.41-1.67 2.84 2.84 0 0 0-1.09-3.46 6.73 6.73 0 0 0-3.78-.95c-.81-1-.15-2.47.64-3.48s1.75-2.16 1.45-3.4c-.45-1.88-3.08-2-5-1.58-.7-1.14-.68-2.56-1-3.85s-1.37-2.64-2.69-2.48-2 1.56-3.24 1.85c-1.42.33-2.65-.92-3.76-1.86s-3.06-1.53-3.83-.29c-.46.74-.19 1.78-.66 2.51-.83 1.27-2.79.48-4-.42s-3.16-1.71-4-.47a5.38 5.38 0 0 0-.47 1.31c-.58 1.66-2.38 2.49-3.78 3.56s-2.51 3.19-1.32 4.49c.58.64 1.61.9 1.9 1.72.36 1-.68 1.94-1.51 2.64-1.37 1.17-1.62 4.68.2 5.63.76.41 1.88.53 2.07 1.37s-.6 1.34-1.11 1.92a3.63 3.63 0 0 0 1.11 5.39c.44.21 1 .38 1.14.84a1.69 1.69 0 0 1-.11 1 5.16 5.16 0 0 0-.17 2 .9.9 0 0 0 .23.62 1 1 0 0 0 .58.16c2.63.12 3.9-.81 5.5 1.47a1.91 1.91 0 0 0 .55.58 1.79 1.79 0 0 0 .72.19c1.81.14 3-1 4.64-1.19 2.29-.3 2.78.89 4.8 1.83 3.14 1.46 4.68.54 5.28-1.63Z" style="fill:#ebebeb"/><path d="M350.48 204.88a9.2 9.2 0 0 0 .28-1.87c.23-3.9 3.95-3.28 7.11-3.81 2.47-.41-4.07-6.65.91-8.67a4.42 4.42 0 0 0 2.41-1.67 2.84 2.84 0 0 0-1.09-3.46 6.75 6.75 0 0 0-3.78-1c-.81-1-.15-2.47.63-3.48s1.75-2.16 1.46-3.4c-.45-1.88-3.08-1.95-5-1.58-.7-1.14-.68-2.56-1-3.85s-1.37-2.64-2.69-2.48-2 1.56-3.24 1.85c-1.42.33-2.65-.92-3.76-1.86s-3.06-1.54-3.83-.29c-.46.74-.19 1.78-.66 2.51-.83 1.27-2.79.48-4-.42s-3.16-1.72-4-.47a5.38 5.38 0 0 0-.47 1.31c-.58 1.66-2.38 2.49-3.78 3.56s-2.51 3.18-1.32 4.49c.58.64 1.61.9 1.9 1.72.36 1-.68 1.94-1.51 2.64-1.38 1.17-1.63 4.67.19 5.63.77.41 1.89.53 2.08 1.37s-.6 1.34-1.11 1.92a3.63 3.63 0 0 0 1.11 5.39c.44.21 1 .38 1.13.84a1.69 1.69 0 0 1-.1 1 5.16 5.16 0 0 0-.17 1.95.9.9 0 0 0 .23.62 1 1 0 0 0 .58.16c2.63.12 3.9-.81 5.5 1.47a1.8 1.8 0 0 0 .55.58 1.6 1.6 0 0 0 .72.18c1.81.15 3-1 4.64-1.18 2.29-.3 2.78.88 4.8 1.83 3.14 1.59 4.68.64 5.28-1.53Z" style="fill:#ebebeb"/><path d="M347.56 185.61a9.42 9.42 0 0 0 .28-1.88c.23-3.9 4-3.28 7.12-3.81 2.47-.41-4.08-6.65.91-8.67a4.34 4.34 0 0 0 2.4-1.67 2.84 2.84 0 0 0-1.08-3.46 6.78 6.78 0 0 0-3.79-1c-.81-1-.15-2.47.64-3.48s1.75-2.16 1.45-3.4c-.45-1.88-3.08-1.95-5-1.58-.7-1.14-.69-2.56-1-3.85s-1.37-2.64-2.69-2.48-2 1.56-3.23 1.85c-1.42.34-2.65-.92-3.77-1.86s-3.06-1.53-3.83-.29c-.46.74-.18 1.78-.66 2.51-.83 1.27-2.79.48-4-.42s-3.16-1.71-4-.46a5.17 5.17 0 0 0-.47 1.3c-.58 1.66-2.38 2.49-3.78 3.56s-2.51 3.19-1.32 4.49c.58.64 1.61.9 1.9 1.72.37 1-.68 1.94-1.51 2.64-1.37 1.17-1.62 4.68.2 5.64.76.4 1.88.52 2.07 1.36s-.6 1.34-1.11 1.93a3.62 3.62 0 0 0 1.11 5.38c.44.21 1 .38 1.14.84a1.73 1.73 0 0 1-.11 1 5.55 5.55 0 0 0-.17 1.95.9.9 0 0 0 .24.61.93.93 0 0 0 .57.16c2.63.12 3.9-.81 5.5 1.47a2.07 2.07 0 0 0 .55.59 1.83 1.83 0 0 0 .73.18c1.8.15 3-1 4.63-1.19 2.3-.29 2.78.89 4.8 1.84 3.14 1.56 4.72.64 5.28-1.52Z" style="fill:#ebebeb"/><path d="M327.62 195.21a9.2 9.2 0 0 0 .28-1.88c.23-3.89 4-3.28 7.12-3.81 2.47-.41-4.08-6.65.91-8.66a4.41 4.41 0 0 0 2.4-1.68 2.82 2.82 0 0 0-1.09-3.45 6.57 6.57 0 0 0-3.78-.95c-.81-1-.15-2.48.64-3.49s1.75-2.15 1.45-3.4c-.45-1.88-3.08-1.94-5-1.58-.7-1.13-.69-2.55-1-3.84s-1.37-2.65-2.69-2.49-2 1.57-3.23 1.85c-1.42.34-2.65-.92-3.77-1.86s-3.06-1.53-3.83-.29c-.46.74-.18 1.78-.66 2.51-.83 1.27-2.79.48-4-.42s-3.16-1.71-4-.46a5.17 5.17 0 0 0-.47 1.3c-.58 1.66-2.38 2.49-3.78 3.56s-2.51 3.19-1.32 4.49c.58.64 1.61.9 1.9 1.72.37 1-.68 1.94-1.51 2.64-1.37 1.18-1.62 4.68.2 5.64.76.4 1.88.52 2.07 1.37s-.6 1.34-1.11 1.92a3.62 3.62 0 0 0 1.11 5.38c.44.21 1 .38 1.14.84a1.73 1.73 0 0 1-.11 1 5.55 5.55 0 0 0-.17 1.95.89.89 0 0 0 .23.61 1 1 0 0 0 .58.16c2.63.12 3.9-.81 5.5 1.48a2 2 0 0 0 .55.58 1.79 1.79 0 0 0 .73.18c1.8.15 3-1 4.63-1.19 2.3-.29 2.78.89 4.8 1.84 3.14 1.51 4.66.59 5.28-1.57Z" style="fill:#ebebeb"/><path d="M307.47 190.77a9.2 9.2 0 0 0 .28-1.87c.23-3.9 3.95-3.28 7.11-3.81 2.47-.41-4.07-6.66.91-8.67a4.38 4.38 0 0 0 2.41-1.68 2.83 2.83 0 0 0-1.09-3.45 6.75 6.75 0 0 0-3.78-.95c-.81-1-.15-2.47.63-3.48s1.75-2.16 1.46-3.4c-.46-1.88-3.08-2-5-1.58-.7-1.14-.68-2.56-1-3.85s-1.37-2.64-2.69-2.48-2 1.56-3.24 1.85c-1.42.33-2.65-.92-3.76-1.87s-3.07-1.53-3.83-.28c-.46.74-.19 1.77-.67 2.51-.82 1.26-2.79.48-4-.42s-3.16-1.72-4-.47a5.24 5.24 0 0 0-.47 1.31c-.58 1.66-2.38 2.49-3.78 3.55s-2.51 3.19-1.32 4.5c.58.64 1.61.9 1.9 1.72.36 1-.68 1.94-1.51 2.64-1.38 1.17-1.63 4.67.19 5.63.77.4 1.89.53 2.08 1.37s-.6 1.34-1.11 1.92a3.63 3.63 0 0 0 1.11 5.39c.44.21 1 .38 1.13.84a1.69 1.69 0 0 1-.1 1 5.35 5.35 0 0 0-.18 1.95.7.7 0 0 0 .82.78c2.63.12 3.89-.82 5.5 1.47a1.7 1.7 0 0 0 .55.58 1.6 1.6 0 0 0 .72.18c1.81.15 3-1 4.64-1.19 2.29-.29 2.78.89 4.8 1.84 3.15 1.51 4.69.59 5.29-1.58Z" style="fill:#ebebeb"/><path d="M307.2 212.33a7.67 7.67 0 0 0 .23-1.48c.18-3.06 3.11-2.58 5.6-3 1.94-.33-3.21-5.24.71-6.83a3.48 3.48 0 0 0 1.9-1.32 2.23 2.23 0 0 0-.86-2.72 5.28 5.28 0 0 0-3-.75c-.64-.77-.12-2 .5-2.74s1.38-1.7 1.15-2.68c-.36-1.48-2.43-1.53-3.92-1.24a10.93 10.93 0 0 1-.81-3c-.27-1-1.07-2.08-2.12-2s-1.58 1.22-2.54 1.45c-1.12.27-2.09-.72-3-1.47s-2.41-1.2-3-.22c-.36.58-.15 1.4-.52 2-.66 1-2.2.38-3.16-.33s-2.49-1.35-3.16-.36a4 4 0 0 0-.38 1c-.45 1.31-1.87 2-3 2.81s-2 2.51-1 3.53c.46.51 1.27.71 1.5 1.36s-.54 1.52-1.19 2.08c-1.08.92-1.28 3.68.15 4.43.6.32 1.49.42 1.63 1.08s-.47 1.06-.87 1.51a2.85 2.85 0 0 0 .87 4.24c.35.17.77.3.9.66a1.42 1.42 0 0 1-.08.81 4.15 4.15 0 0 0-.14 1.53.67.67 0 0 0 .19.48.7.7 0 0 0 .45.13c2.07.09 3.07-.64 4.33 1.16a1.57 1.57 0 0 0 .43.46 1.26 1.26 0 0 0 .57.14c1.43.12 2.36-.77 3.66-.93 1.8-.23 2.18.7 3.77 1.44 2.53 1.2 3.74.44 4.21-1.23Z" style="fill:#ebebeb"/><path d="M295.91 204.88a9.2 9.2 0 0 0 .28-1.87c.24-3.9 3.95-3.28 7.12-3.81 2.47-.41-4.08-6.65.91-8.67a4.39 4.39 0 0 0 2.4-1.67 2.84 2.84 0 0 0-1.08-3.46 6.78 6.78 0 0 0-3.79-1c-.81-1-.15-2.47.64-3.48s1.75-2.16 1.45-3.4c-.45-1.88-3.08-1.95-5-1.58-.7-1.14-.69-2.56-1-3.85s-1.37-2.64-2.69-2.48-2 1.56-3.23 1.85c-1.42.33-2.65-.92-3.77-1.86s-3.06-1.54-3.83-.29c-.46.74-.18 1.78-.66 2.51-.83 1.27-2.79.48-4-.42s-3.16-1.72-4-.47a5.38 5.38 0 0 0-.47 1.31c-.58 1.66-2.37 2.49-3.77 3.56s-2.52 3.18-1.33 4.49c.58.64 1.61.9 1.9 1.72.37 1-.68 1.94-1.51 2.64-1.37 1.17-1.62 4.67.2 5.63.76.41 1.88.53 2.07 1.37s-.6 1.34-1.1 1.92a3.62 3.62 0 0 0 1.1 5.39c.44.21 1 .38 1.14.84a1.69 1.69 0 0 1-.11 1 5.6 5.6 0 0 0-.17 1.95.9.9 0 0 0 .24.62.93.93 0 0 0 .57.16c2.63.12 3.9-.81 5.5 1.47a1.91 1.91 0 0 0 .55.58 1.67 1.67 0 0 0 .73.18c1.8.15 3-1 4.64-1.18 2.29-.3 2.77.88 4.79 1.83 3.15 1.59 4.68.64 5.28-1.53ZM327.62 171.49a9.2 9.2 0 0 0 .28-1.87c.23-3.9 4-3.28 7.12-3.81 2.47-.41-4.08-6.65.91-8.67a4.34 4.34 0 0 0 2.4-1.67 2.83 2.83 0 0 0-1.09-3.46 6.73 6.73 0 0 0-3.78-.95c-.81-1-.15-2.47.64-3.48s1.75-2.16 1.45-3.4c-.45-1.88-3.08-2-5-1.58-.7-1.14-.69-2.56-1-3.85s-1.37-2.64-2.69-2.48-2 1.56-3.23 1.85c-1.42.34-2.65-.92-3.77-1.86s-3.06-1.53-3.83-.29c-.46.74-.18 1.78-.66 2.51-.83 1.27-2.79.48-4-.42s-3.16-1.71-4-.47a5.38 5.38 0 0 0-.47 1.31c-.58 1.66-2.38 2.49-3.78 3.56s-2.51 3.19-1.32 4.49c.58.64 1.61.9 1.9 1.72.37 1-.68 1.94-1.51 2.64-1.37 1.17-1.62 4.68.2 5.63.76.41 1.88.53 2.07 1.37s-.6 1.34-1.11 1.92a3.63 3.63 0 0 0 1.11 5.39c.44.21 1 .38 1.14.84a1.73 1.73 0 0 1-.11 1 5.55 5.55 0 0 0-.17 2 .89.89 0 0 0 .23.61 1 1 0 0 0 .58.16c2.63.12 3.9-.81 5.5 1.47a2.07 2.07 0 0 0 .55.59 1.79 1.79 0 0 0 .73.18c1.8.15 3-1 4.63-1.19 2.3-.3 2.78.89 4.8 1.84 3.14 1.46 4.66.54 5.28-1.63Z" style="fill:#ebebeb"/><path d="M353.51 172.82a9.2 9.2 0 0 0 .28-1.88c.23-3.89 3.95-3.28 7.12-3.8 2.47-.42-4.08-6.66.91-8.67a4.41 4.41 0 0 0 2.4-1.68 2.82 2.82 0 0 0-1.09-3.45 6.57 6.57 0 0 0-3.78-1c-.81-1-.15-2.48.64-3.49s1.75-2.15 1.45-3.4c-.45-1.88-3.08-1.94-5-1.58-.7-1.13-.69-2.55-1-3.84s-1.37-2.65-2.69-2.48-2 1.56-3.23 1.84c-1.42.34-2.65-.92-3.77-1.86s-3.06-1.53-3.83-.29c-.46.74-.18 1.78-.66 2.51-.83 1.27-2.79.48-4-.42s-3.16-1.71-4-.46a5.17 5.17 0 0 0-.47 1.3c-.58 1.66-2.38 2.49-3.78 3.56s-2.51 3.19-1.32 4.49c.58.64 1.61.9 1.9 1.72.37 1-.68 1.94-1.51 2.65-1.37 1.17-1.62 4.67.2 5.63.76.4 1.88.52 2.07 1.37s-.6 1.34-1.11 1.92a3.62 3.62 0 0 0 1.11 5.38c.44.21 1 .39 1.14.84a1.72 1.72 0 0 1-.11 1 5.58 5.58 0 0 0-.17 1.95.87.87 0 0 0 .23.61 1 1 0 0 0 .58.16c2.63.12 3.9-.81 5.5 1.48a2 2 0 0 0 .55.58 1.64 1.64 0 0 0 .73.18c1.8.15 3-1 4.63-1.19 2.3-.29 2.78.89 4.8 1.84 3.14 1.56 4.68.66 5.28-1.52Z" style="fill:#ebebeb"/><path d="M369.24 183.41a9.2 9.2 0 0 0 .28-1.87c.23-3.9 4-3.28 7.11-3.81 2.47-.41-4.07-6.65.91-8.67a4.37 4.37 0 0 0 2.41-1.67 2.84 2.84 0 0 0-1.09-3.46 6.75 6.75 0 0 0-3.78-1c-.81-1-.15-2.47.63-3.48s1.75-2.16 1.45-3.4c-.45-1.88-3.07-1.95-5-1.58-.7-1.14-.69-2.56-1-3.85s-1.36-2.64-2.69-2.48-2 1.56-3.23 1.85c-1.42.33-2.65-.92-3.76-1.86s-3.07-1.53-3.83-.29c-.46.74-.19 1.78-.67 2.51-.82 1.27-2.79.48-4-.42s-3.16-1.71-4-.47a5.41 5.41 0 0 0-.48 1.31c-.57 1.66-2.37 2.49-3.77 3.56s-2.51 3.18-1.33 4.49c.59.64 1.62.9 1.91 1.72.36 1-.68 1.94-1.51 2.64-1.38 1.17-1.63 4.68.19 5.63.77.41 1.89.53 2.08 1.37s-.6 1.34-1.11 1.92a3.61 3.61 0 0 0 1.11 5.39c.43.21 1 .38 1.13.84a1.69 1.69 0 0 1-.1 1 5.37 5.37 0 0 0-.18 2 .9.9 0 0 0 .24.62 1 1 0 0 0 .58.16c2.63.12 3.89-.81 5.5 1.47a1.7 1.7 0 0 0 .55.58 1.75 1.75 0 0 0 .72.19c1.81.14 3-1 4.64-1.19 2.29-.3 2.78.89 4.79 1.83 3.16 1.51 4.7.59 5.3-1.58Z" style="fill:#ebebeb"/><path d="M364.47 196.81s-6.58 9.29-8.85 12.24-13.6 21.32-15.15 33.47c-.16 1.3-.32 2.41-.48 3.39 4.87 32.19 4.11 91.09 3.94 101.17h-15.45c-.15-11.37-1.46-115.31-1.94-118.48-.52-3.36-7-16.15-17-21.4S291 184.56 291 184.56h3.18s5.9 10.66 14.29 16.55a31.55 31.55 0 0 0 3.78 2.24 53.67 53.67 0 0 1 3.33-18.79l1.72 1.59c-2.32 9.49-2 15.57-1.31 19.06a34.54 34.54 0 0 1 8.68 5.81c8.7-11.32 13.59-37.2 13.59-37.2l2.23 1.21a130.75 130.75 0 0 1-2.88 15.88c-1.63 6.7-6.43 19.31-8.66 25a59.28 59.28 0 0 1 6.58 12.34 5.13 5.13 0 0 1 .84-1c5.67-5.12 16.32-29.34 16.32-29.34 2.58-5.63-1.36-20.41-1.36-20.41h3l1.33 12.93 7.49-8.17 1.36 1.14-7.94 10.2-4.08 12.93 10.66-11.8Z" style="fill:#e6e6e6"/><path d="M83.66 242.83a6.61 6.61 0 0 1-.22-1.44c-.18-3-3-2.51-5.46-2.92-1.9-.31 3.12-5.1-.7-6.65a3.37 3.37 0 0 1-1.84-1.28 2.18 2.18 0 0 1 .83-2.66 5.18 5.18 0 0 1 2.9-.72c.63-.76.12-1.9-.48-2.68s-1.35-1.65-1.12-2.61c.35-1.44 2.36-1.49 3.82-1.21a10.69 10.69 0 0 0 .78-2.95c.27-1 1-2 2.07-1.9s1.54 1.19 2.48 1.42c1.09.25 2-.71 2.89-1.43s2.35-1.18 2.94-.23c.35.57.14 1.37.51 1.93.63 1 2.14.37 3.07-.32s2.43-1.32 3.08-.36a4 4 0 0 1 .37 1c.44 1.28 1.82 1.91 2.89 2.73s1.93 2.45 1 3.45c-.45.49-1.24.69-1.46 1.32-.28.78.52 1.49 1.16 2 1 .9 1.24 3.58-.15 4.32-.59.31-1.45.4-1.59 1.05s.46 1 .85 1.47a2.79 2.79 0 0 1-.85 4.14c-.34.16-.75.29-.87.64a1.25 1.25 0 0 0 .08.78 4.19 4.19 0 0 1 .13 1.5.68.68 0 0 1-.18.46.7.7 0 0 1-.45.13c-2 .09-3-.62-4.22 1.13a1.39 1.39 0 0 1-.42.45 1.44 1.44 0 0 1-.55.14c-1.39.11-2.29-.76-3.56-.92-1.76-.22-2.13.69-3.68 1.41-2.42 1.18-3.6.47-4.05-1.19Z" style="fill:#ebebeb"/><path d="M106.88 240.32a7.27 7.27 0 0 1-.22-1.44c-.17-3-3-2.51-5.45-2.92-1.9-.31 3.12-5.1-.7-6.65a3.43 3.43 0 0 1-1.85-1.31 2.17 2.17 0 0 1 .84-2.65 5.09 5.09 0 0 1 2.9-.73c.62-.76.11-1.9-.49-2.68s-1.34-1.65-1.11-2.61c.34-1.44 2.36-1.49 3.81-1.21a10.37 10.37 0 0 0 .79-3c.26-1 1-2 2.06-1.9s1.55 1.2 2.49 1.42c1.09.25 2-.71 2.88-1.43s2.35-1.18 2.94-.23c.36.57.14 1.37.51 1.93.64 1 2.14.37 3.08-.32s2.42-1.32 3.08-.36a4 4 0 0 1 .36 1c.44 1.28 1.82 1.91 2.9 2.73s1.93 2.45 1 3.45c-.45.49-1.24.69-1.47 1.32-.27.78.53 1.49 1.16 2 1.06.9 1.25 3.58-.15 4.32-.58.31-1.44.4-1.59 1.05s.46 1 .85 1.47a2.78 2.78 0 0 1-.85 4.14c-.33.16-.74.29-.87.64a1.32 1.32 0 0 0 .08.78 4.19 4.19 0 0 1 .14 1.5.73.73 0 0 1-.19.47.71.71 0 0 1-.44.12c-2 .09-3-.62-4.22 1.13a1.05 1.05 0 0 1-1 .59c-1.38.11-2.29-.76-3.56-.92-1.75-.22-2.13.69-3.67 1.41-2.4 1.26-3.58.57-4.04-1.11Z" style="fill:#ebebeb"/><path d="M109.12 225.53a6.7 6.7 0 0 1-.22-1.44c-.18-3-3-2.51-5.46-2.92-1.89-.32 3.13-5.1-.69-6.65a3.36 3.36 0 0 1-1.85-1.29 2.18 2.18 0 0 1 .83-2.65 5.19 5.19 0 0 1 2.91-.72c.62-.76.11-1.9-.49-2.68s-1.34-1.65-1.11-2.61c.34-1.44 2.36-1.49 3.81-1.21a10.37 10.37 0 0 0 .79-3c.26-1 1-2 2.06-1.9s1.54 1.19 2.48 1.42 2-.71 2.89-1.44 2.35-1.17 2.94-.22c.35.57.14 1.37.51 1.93.63 1 2.14.37 3.08-.32s2.42-1.32 3.08-.36a4.1 4.1 0 0 1 .36 1c.44 1.28 1.82 1.91 2.9 2.73s1.92 2.45 1 3.45c-.44.49-1.23.69-1.46 1.32s.53 1.49 1.16 2c1.06.89 1.25 3.58-.15 4.32-.58.31-1.44.4-1.59 1s.46 1 .85 1.47a2.77 2.77 0 0 1-.85 4.13c-.33.17-.75.3-.87.65a1.32 1.32 0 0 0 .08.78 3.94 3.94 0 0 1 .13 1.49.64.64 0 0 1-.18.47.67.67 0 0 1-.44.13c-2 .09-3-.63-4.22 1.13a1.51 1.51 0 0 1-.42.45 1.35 1.35 0 0 1-.56.13c-1.38.12-2.29-.75-3.56-.91-1.76-.22-2.13.68-3.68 1.41-2.42 1.28-3.6.57-4.06-1.09Z" style="fill:#ebebeb"/><path d="M124.42 232.9a6.7 6.7 0 0 1-.22-1.44c-.18-3-3-2.52-5.46-2.92-1.89-.32 3.13-5.11-.69-6.65a3.36 3.36 0 0 1-1.85-1.29 2.18 2.18 0 0 1 .8-2.6 5.2 5.2 0 0 1 2.91-.73c.62-.75.11-1.9-.49-2.67s-1.34-1.65-1.11-2.61c.34-1.44 2.36-1.49 3.81-1.21a10.37 10.37 0 0 0 .79-2.95c.26-1 1-2 2.06-1.91s1.54 1.2 2.48 1.42 2-.7 2.89-1.43 2.35-1.17 2.94-.22c.35.57.14 1.37.51 1.93.63 1 2.14.37 3.08-.32s2.42-1.32 3.08-.36a4.1 4.1 0 0 1 .36 1c.44 1.27 1.82 1.91 2.9 2.73s1.92 2.45 1 3.44c-.45.5-1.23.7-1.46 1.33-.28.78.53 1.48 1.16 2 1.06.9 1.25 3.59-.15 4.33-.58.3-1.44.4-1.59 1s.46 1 .85 1.47a2.77 2.77 0 0 1-.85 4.13c-.33.16-.75.29-.87.64a1.35 1.35 0 0 0 .08.79 3.94 3.94 0 0 1 .13 1.49.66.66 0 0 1-.18.47.74.74 0 0 1-.44.13c-2 .09-3-.63-4.22 1.13a1.36 1.36 0 0 1-.42.44 1.22 1.22 0 0 1-.56.14c-1.38.12-2.29-.75-3.56-.91-1.76-.22-2.13.68-3.68 1.41-2.39 1.16-3.57.46-4.03-1.2Z" style="fill:#ebebeb"/><path d="M139.88 229.5a8.39 8.39 0 0 1-.22-1.44c-.17-3-3-2.52-5.45-2.92-1.9-.32 3.12-5.11-.7-6.66a3.38 3.38 0 0 1-1.85-1.28 2.17 2.17 0 0 1 .84-2.65 5.09 5.09 0 0 1 2.9-.73c.62-.76.12-1.9-.49-2.67s-1.34-1.66-1.11-2.61c.34-1.44 2.36-1.49 3.81-1.21a10.46 10.46 0 0 0 .79-3c.26-1 1-2 2.07-1.91s1.54 1.2 2.48 1.42c1.09.26 2-.71 2.89-1.43s2.35-1.18 2.93-.22c.36.57.15 1.36.51 1.92.64 1 2.14.37 3.08-.32s2.42-1.31 3.08-.35a3.72 3.72 0 0 1 .36 1c.45 1.27 1.83 1.91 2.9 2.73s1.93 2.44 1 3.44c-.45.49-1.24.69-1.46 1.32-.28.79.52 1.49 1.15 2 1.06.9 1.25 3.59-.14 4.32-.59.31-1.45.41-1.59 1s.45 1 .84 1.48a2.77 2.77 0 0 1-.85 4.13c-.33.16-.74.29-.87.64a1.32 1.32 0 0 0 .08.78 4.23 4.23 0 0 1 .14 1.5.67.67 0 0 1-.19.47.65.65 0 0 1-.44.12c-2 .09-3-.62-4.22 1.13a1.4 1.4 0 0 1-.42.45 1.32 1.32 0 0 1-.56.14c-1.38.11-2.29-.75-3.55-.91-1.76-.23-2.13.68-3.68 1.41-2.42 1.27-3.6.57-4.06-1.09Z" style="fill:#ebebeb"/><path d="M140.08 246a6.22 6.22 0 0 1-.17-1.14c-.14-2.35-2.38-2-4.29-2.3-1.5-.25 2.46-4-.55-5.23a2.66 2.66 0 0 1-1.46-1 1.71 1.71 0 0 1 .66-2.08 4.09 4.09 0 0 1 2.28-.58c.5-.59.1-1.49-.38-2.1s-1.06-1.3-.88-2.06c.28-1.13 1.86-1.17 3-.95a8.54 8.54 0 0 0 .62-2.32c.2-.78.82-1.6 1.62-1.5s1.22.94 2 1.11 1.6-.55 2.27-1.12 1.85-.93 2.32-.18c.27.45.11 1.08.4 1.52.5.77 1.68.29 2.42-.25s1.91-1 2.42-.28a3 3 0 0 1 .29.78c.35 1 1.43 1.51 2.28 2.15s1.52 1.93.8 2.72c-.35.38-1 .54-1.15 1s.41 1.17.91 1.59c.83.71 1 2.83-.11 3.41-.47.24-1.14.31-1.26.82s.36.81.67 1.16a2.19 2.19 0 0 1-.67 3.26c-.26.12-.59.23-.68.5a1 1 0 0 0 .06.62 3.34 3.34 0 0 1 .11 1.18.56.56 0 0 1-.15.37.51.51 0 0 1-.35.09c-1.58.08-2.35-.49-3.32.9a1.1 1.1 0 0 1-.33.35 1.29 1.29 0 0 1-.44.11c-1.09.09-1.8-.6-2.8-.72-1.39-.18-1.68.53-2.9 1.11-1.95.96-2.88.4-3.24-.94Z" style="fill:#ebebeb"/><path d="M148.75 240.32a6.61 6.61 0 0 1-.22-1.44c-.18-3-3-2.51-5.46-2.92-1.89-.31 3.13-5.1-.69-6.65a3.39 3.39 0 0 1-1.85-1.28 2.17 2.17 0 0 1 .83-2.65 5.12 5.12 0 0 1 2.91-.73c.62-.76.11-1.9-.49-2.68s-1.34-1.65-1.12-2.61c.35-1.44 2.36-1.49 3.82-1.21a10.37 10.37 0 0 0 .79-3c.26-1 1-2 2.06-1.9s1.54 1.2 2.48 1.42c1.09.25 2-.71 2.89-1.43s2.35-1.18 2.94-.23c.35.57.14 1.37.51 1.93.63 1 2.14.37 3.07-.32s2.43-1.32 3.09-.36a4.42 4.42 0 0 1 .36 1c.44 1.28 1.82 1.91 2.9 2.73s1.92 2.45 1 3.45c-.45.49-1.24.69-1.46 1.32-.28.78.53 1.49 1.16 2 1.06.9 1.25 3.58-.15 4.32-.59.31-1.45.4-1.59 1.05s.46 1 .85 1.47a2.78 2.78 0 0 1-.85 4.14c-.34.16-.75.29-.87.64a1.32 1.32 0 0 0 .08.78 4.19 4.19 0 0 1 .13 1.5.67.67 0 0 1-.18.47.75.75 0 0 1-.44.12c-2 .09-3-.62-4.22 1.13a1.51 1.51 0 0 1-.42.45 1.54 1.54 0 0 1-.56.14c-1.39.11-2.29-.76-3.56-.92-1.76-.22-2.13.69-3.68 1.41-2.42 1.23-3.6.54-4.06-1.14ZM124.42 214.71a6.8 6.8 0 0 1-.22-1.45c-.18-3-3-2.51-5.46-2.92-1.89-.31 3.13-5.1-.69-6.65a3.34 3.34 0 0 1-1.85-1.28 2.18 2.18 0 0 1 .83-2.65 5.12 5.12 0 0 1 2.91-.73c.62-.76.11-1.9-.49-2.67s-1.34-1.66-1.11-2.61c.34-1.44 2.36-1.5 3.81-1.22a10.37 10.37 0 0 0 .79-2.95c.26-1 1-2 2.06-1.9s1.54 1.2 2.48 1.42 2-.71 2.89-1.43 2.35-1.18 2.94-.22c.35.57.14 1.36.51 1.92.63 1 2.14.37 3.08-.32s2.42-1.31 3.08-.36a4.42 4.42 0 0 1 .36 1c.44 1.28 1.82 1.92 2.9 2.74s1.92 2.44 1 3.44c-.45.49-1.23.69-1.46 1.32-.28.79.53 1.49 1.16 2 1.06.9 1.25 3.59-.15 4.32-.58.31-1.44.4-1.59 1.05s.46 1 .85 1.48a2.77 2.77 0 0 1-.85 4.13c-.33.16-.75.29-.87.64a1.32 1.32 0 0 0 .08.78 4 4 0 0 1 .13 1.5.67.67 0 0 1-.18.47.73.73 0 0 1-.44.12c-2 .09-3-.62-4.22 1.13a1.4 1.4 0 0 1-.42.45 1.36 1.36 0 0 1-.56.14c-1.38.11-2.29-.75-3.56-.91-1.76-.23-2.13.68-3.68 1.41-2.42 1.17-3.6.46-4.06-1.19Z" style="fill:#ebebeb"/><path d="M104.55 215.72a7.43 7.43 0 0 1-.21-1.44c-.18-3-3-2.51-5.46-2.92-1.9-.32 3.12-5.11-.7-6.65a3.33 3.33 0 0 1-1.84-1.29 2.17 2.17 0 0 1 .83-2.65 5.1 5.1 0 0 1 2.9-.72c.63-.76.12-1.9-.49-2.68s-1.34-1.65-1.11-2.61c.35-1.44 2.36-1.49 3.82-1.21a10.69 10.69 0 0 0 .78-3c.27-1 1.05-2 2.07-1.9s1.54 1.19 2.48 1.41 2-.7 2.89-1.43 2.35-1.17 2.94-.22c.35.57.14 1.37.5 1.93.64 1 2.15.37 3.08-.32s2.43-1.32 3.08-.36a4.12 4.12 0 0 1 .37 1c.44 1.28 1.82 1.91 2.89 2.73s1.93 2.45 1 3.45c-.45.49-1.24.69-1.46 1.32-.28.78.52 1.49 1.16 2 1 .89 1.24 3.58-.15 4.32-.59.31-1.45.4-1.59 1.05s.46 1 .85 1.47a2.78 2.78 0 0 1-.85 4.13c-.34.16-.75.3-.88.65a1.41 1.41 0 0 0 .08.78 3.94 3.94 0 0 1 .14 1.49.7.7 0 0 1-.18.47.77.77 0 0 1-.45.13c-2 .09-3-.63-4.22 1.13a1.26 1.26 0 0 1-.42.44 1.15 1.15 0 0 1-.55.14c-1.39.12-2.3-.75-3.56-.91-1.76-.22-2.13.68-3.68 1.41-2.42 1.23-3.61.52-4.06-1.14Z" style="fill:#ebebeb"/><path d="M92.49 223.85a6.7 6.7 0 0 1-.22-1.44c-.18-3-3-2.51-5.46-2.92-1.89-.32 3.13-5.11-.69-6.65a3.36 3.36 0 0 1-1.85-1.29 2.18 2.18 0 0 1 .83-2.65 5.2 5.2 0 0 1 2.91-.73c.62-.75.11-1.89-.49-2.67s-1.34-1.65-1.11-2.61c.34-1.44 2.35-1.49 3.81-1.21a10.37 10.37 0 0 0 .79-3c.26-1 1-2 2.06-1.91s1.54 1.2 2.48 1.42c1.09.26 2-.7 2.89-1.43s2.35-1.17 2.94-.22c.35.57.14 1.37.51 1.93.63 1 2.14.37 3.08-.32s2.42-1.32 3.08-.36a4.1 4.1 0 0 1 .36 1c.44 1.28 1.82 1.91 2.9 2.73s1.92 2.45 1 3.45c-.45.49-1.23.69-1.46 1.32-.28.78.53 1.48 1.16 2 1.06.9 1.25 3.59-.15 4.33-.58.3-1.44.4-1.59 1.05s.46 1 .85 1.47a2.77 2.77 0 0 1-.85 4.13c-.34.16-.75.3-.87.65a1.32 1.32 0 0 0 .08.78 4.15 4.15 0 0 1 .13 1.49.66.66 0 0 1-.18.47.76.76 0 0 1-.44.13c-2 .09-3-.63-4.22 1.13a1.36 1.36 0 0 1-.42.44 1.22 1.22 0 0 1-.56.14c-1.38.12-2.29-.75-3.56-.91-1.76-.22-2.13.68-3.68 1.41-2.42 1.22-3.55.51-4.06-1.15Z" style="fill:#ebebeb"/><path d="M96.15 234.13s5 7.13 6.78 9.39 10.44 16.36 11.63 25.68c.12 1 .25 1.85.37 2.6-3.74 24.7-3.16 69.89-3 77.63h11.85c.11-8.73 1.12-88.48 1.49-90.91s5.35-12.39 13-16.42 14.27-17.37 14.27-17.37h-2.44s-4.53 8.18-11 12.7a24.55 24.55 0 0 1-2.9 1.72 41.13 41.13 0 0 0-2.56-14.42l-1.29 1.27c1.78 7.28 1.55 12 1 14.63a26.48 26.48 0 0 0-6.65 4.37c-6.68-8.68-10.43-28.54-10.43-28.54l-1.71.93a99.37 99.37 0 0 0 2.21 12.18c1.25 5.14 4.93 14.82 6.64 19.21a46 46 0 0 0-5 9.47 4 4 0 0 0-.65-.77c-4.39-3.9-12.56-22.48-12.56-22.48-2-4.32 1-15.66 1-15.66H104l-1 9.91-5.81-6.25-1 .87 6.09 7.83 3.13 9.92-8.18-9.05Z" style="fill:#e6e6e6"/><path d="M58.29 363.4h383.42v11.92a7.92 7.92 0 0 1-7.92 7.92H66.2a7.92 7.92 0 0 1-7.92-7.92V363.4h.01Z" transform="rotate(180 250 373.32)" style="fill:#e0e0e0"/><ellipse cx="250" cy="416.24" rx="193.89" ry="11.32" style="fill:#f5f5f5"/><path d="M105.42 391.16S104 381 97.53 379.87s-4.55-6-6.24-7.94-6.13 3.72-2.33 9.16.69 3.73 2.33 8.79 14.71 9.71 14.13 1.28Z" style="fill:#263238"/><path d="M105.42 391.16S104 381 97.53 379.87s-4.55-6-6.24-7.94-6.13 3.72-2.33 9.16.69 3.73 2.33 8.79 14.71 9.71 14.13 1.28Z" style="fill:#fff;isolation:isolate;opacity:.2"/><path d="M105.15 398.21a.45.45 0 0 1-.41-.25c0-.11-5-10.69-2.41-27.54a70.77 70.77 0 0 1 4-14.1c3.14-8.58 5.63-15.36-.06-27.74-1.8-3.92-3.63-7.57-5.41-11.1-6.68-13.26-12-23.73-8-34.33a.45.45 0 0 1 .58-.27.46.46 0 0 1 .27.58c-3.79 10.24 1.41 20.55 8 33.61 1.78 3.54 3.63 7.2 5.43 11.13 5.85 12.72 3.17 20 .08 28.43a69.16 69.16 0 0 0-3.94 13.92c-2.57 16.57 2.28 26.92 2.33 27a.46.46 0 0 1-.22.6.43.43 0 0 1-.24.06Z" style="fill:#263238"/><path d="M101.39 395.73s-4.2-6.34 1.87-9.6 7.28-.63 11-3 6.6-8 7.24-4.39-3.7 5.7-2.16 7.36-10.17 12.49-17.95 9.63ZM91.47 288.59s-4.1-12.45 5.22-12.71-.95 11.39-5.22 12.71ZM99.57 298.17s2.77-11.32 9.39-8.94-2.8 9.15-9.39 8.94ZM88.34 299.15s1-9-6-9.22-3.91 7.76 6 9.22ZM93 317.58s-9.42-8.39-12.8-2.14 7.11 7.56 12.8 2.14ZM109.68 316.09s1.77-13.94 9.38-9.57-2.75 10.97-9.38 9.57ZM116.38 336.06s-5.62-14.09 4.82-12.5 2.54 9.08-4.82 12.5ZM100.36 341.09s-8.82-10.38-15.55-7.09-1.23 13.62 15.55 7.09ZM108.36 364.1s7.51-16.68 14.19-11.06-4.26 14.03-14.19 11.06ZM97.45 363.12s2-12.93-5.45-11.89-5.49 8.95 5.45 11.89Z" style="fill:#263238"/><g style="isolation:isolate;opacity:.2"><path d="M91.47 288.59s-4.1-12.45 5.22-12.71-.95 11.39-5.22 12.71ZM99.57 298.17s2.77-11.32 9.39-8.94-2.8 9.15-9.39 8.94ZM88.34 299.15s1-9-6-9.22-3.91 7.76 6 9.22ZM93 317.58s-9.42-8.39-12.8-2.14 7.11 7.56 12.8 2.14ZM109.68 316.09s1.77-13.94 9.38-9.57-2.75 10.97-9.38 9.57ZM116.38 336.06s-5.62-14.09 4.82-12.5 2.54 9.08-4.82 12.5ZM100.36 341.09s-8.82-10.38-15.55-7.09-1.23 13.62 15.55 7.09ZM108.36 364.1s7.51-16.68 14.19-11.06-4.26 14.03-14.19 11.06ZM97.45 363.12s2-12.93-5.45-11.89-5.49 8.95 5.45 11.89Z" style="fill:#fff"/></g><path d="M95.5 305.67a.46.46 0 0 1-.22-.06c-5.51-3.09-9.48-8.92-9.65-9.17a.46.46 0 0 1 .13-.63.44.44 0 0 1 .62.13c0 .05 3.82 5.61 8.94 8.65.85-1.56 3.88-6.94 6.41-8.46a.45.45 0 0 1 .62.16.43.43 0 0 1-.16.61c-2.69 1.62-6.25 8.45-6.29 8.52a.44.44 0 0 1-.27.23ZM104.05 323a.47.47 0 0 1-.28-.09c-7.84-5.93-17.87-5.68-18-5.68a.48.48 0 0 1-.47-.44.45.45 0 0 1 .44-.46c.1 0 10.11-.26 18.15 5.57 1-1.68 5.08-7.75 10.25-10.79a.44.44 0 0 1 .62.16.43.43 0 0 1-.16.61c-5.7 3.36-10.15 10.83-10.2 10.9a.41.41 0 0 1-.3.21ZM109.48 345.84a.46.46 0 0 1-.22-.06c-.12-.07-11.58-6.66-19.87-6.82a.45.45 0 1 1 0-.9c7.9.15 18.19 5.75 20 6.78 5.32-4.48 9.54-15.5 9.59-15.61a.45.45 0 1 1 .84.32c-.18.47-4.48 11.68-10.1 16.19a.43.43 0 0 1-.24.1ZM102.85 369.49a.46.46 0 0 1-.23-.06c-4.33-2.48-9.93-13.34-10.17-13.8a.45.45 0 0 1 .81-.41c0 .11 5.41 10.49 9.48 13.21a25.86 25.86 0 0 1 12.6-8.05.46.46 0 0 1 .56.31.45.45 0 0 1-.3.56 24.78 24.78 0 0 0-12.39 8 .42.42 0 0 1-.36.24ZM102 394.22s-3.61-5.74-7.68-6.56-5.79-5.51-7.32-2.66 2.67 12.15 15 9.22Z" style="fill:#263238"/><path style="fill:#407bff" d="M83.32 416.75h39.38l2.64-24.29H80.69l2.63 24.29z"/><path style="fill:#407bff" d="M79.77 397.06h46.49l.59-5.14H79.17l.6 5.14z"/><path style="fill:#fff;opacity:.30000000000000004" d="M79.77 397.06h46.49l.59-5.14H79.17l.6 5.14z"/><path style="fill:#263238" d="m428.9 154.06-3.42 32.85h-17.12l-3.42-32.85h23.96z"/><path style="fill:#fff;opacity:.30000000000000004" d="m428.9 154.06-3.42 32.85h-17.12l-3.42-32.85h23.96z"/><path style="fill:#263238" d="M413.73 179.85h6.37v236.9h-6.37z"/><path style="fill:#fff;opacity:.30000000000000004" d="M413.73 179.85h6.37v236.9h-6.37z"/><path style="fill:#407bff" d="M423.68 184.91h-13.52l-3-28.85h19.52l-3 28.85z"/><path style="fill:#fff;isolation:isolate;opacity:.4" d="M423.68 184.91h-13.52l-3-28.85h19.52l-3 28.85z"/><path style="fill:#263238" d="M415.14 185.36h-.92l-1-30.3h.92l1 30.3z"/><path style="fill:#fff;opacity:.30000000000000004" d="M415.14 185.36h-.92l-1-30.3h.92l1 30.3z"/><path style="fill:#fff;opacity:.2" d="m428.9 154.06-3.42 32.85h-10.76l-1.29-32.85h15.47z"/><path d="M416.92 143.5s-10.16 10-17.94 10l2.42 1.59h31l2.41-1.59c-7.74.02-17.89-10-17.89-10Z" style="fill:#263238"/><path d="m434.85 153.52-2.41 1.58h-31l-2.44-1.58c7.78 0 17.93-10 17.93-10s10.14 10 17.92 10Z" style="fill:#fff;opacity:.4"/><path d="m434.85 153.52-2.41 1.58h-20.16c-.61-1-1-1.71-1-1.71 5.41-2.51 5.68-9.89 5.68-9.89s10.11 10.02 17.89 10.02Z" style="fill:#fff;opacity:.2"/><path d="M411.45 412.37h10.94a2.47 2.47 0 0 1 2.47 2.47v1.91H409v-1.91a2.47 2.47 0 0 1 2.45-2.47Z" style="fill:#263238"/><path d="M411.45 412.37h10.94a2.47 2.47 0 0 1 2.47 2.47v1.91H409v-1.91a2.47 2.47 0 0 1 2.45-2.47Z" style="fill:#fff;opacity:.5"/><rect x="101.6" y="117.54" width="146.24" height="198.58" rx="7.83" style="fill:#407bff"/><rect x="101.6" y="117.54" width="146.24" height="198.58" rx="7.83" style="fill:#fff;isolation:isolate;opacity:.6000000000000001"/><path d="M194.36 170.79a19.64 19.64 0 1 1-19.64-19.63 19.62 19.62 0 0 1 19.64 19.63Z" style="fill:#407bff"/><path d="M194.36 170.79a19.64 19.64 0 1 1-19.64-19.63 19.62 19.62 0 0 1 19.64 19.63Z" style="fill:#fff;opacity:.7000000000000001"/><circle cx="174.72" cy="168.94" r="7.03" style="fill:#fff"/><path d="M187.19 186a19.65 19.65 0 0 1-24.93 0c1.84-5.39 5.63-9.37 10.18-10.38a10.52 10.52 0 0 1 4.56 0c4.56.98 8.34 4.96 10.19 10.38Z" style="fill:#fff"/><text transform="translate(162.14 247.82)" style="opacity:.5;font-size:4px;font-family:Montserrat-Regular,Montserrat">Sign up n<tspan x="18.88" y="0" style="letter-spacing:-.02001953125em">o</tspan><tspan x="21.3" y="0" style="letter-spacing:.0001220703125em">w</tspan></text><rect x="126.99" y="253.58" width="95.47" height="16.35" rx="8.17" style="fill:#407bff"/><g style="opacity:.5"><text transform="translate(156.73 280.86)" style="font-size:4px;font-family:Montserrat-Regular,Montserrat">Forgot Pas<tspan x="21.01" y="0" style="letter-spacing:-.0050048828125em">s</tspan><tspan x="22.87" y="0" style="letter-spacing:-.0198974609375em">w</tspan><tspan x="26.36" y="0">ord?</tspan></text></g><text transform="translate(163.65 264.3)" style="font-size:8px;fill:#fff;font-family:Montserrat-Medium,Montserrat;font-weight:500">Login</text><rect x="126.99" y="198.38" width="95.47" height="16.35" rx="8.17" style="fill:#fff"/><rect x="126.99" y="221.56" width="95.47" height="16.35" rx="8.17" style="fill:#fff"/><g style="opacity:.5"><text transform="translate(137.46 208.02)" style="font-size:5px;font-family:Montserrat-Regular,Montserrat">Name@mail.<tspan x="32.04" y="0" style="letter-spacing:-.02099609375em">c</tspan><tspan x="34.76" y="0">om</tspan></text></g><text transform="translate(137.46 234.18)" style="opacity:.5;font-size:7px;font-family:Montserrat-Regular,Montserrat">*******</text><path d="M205.66 202.71v7.68h10.88v-7.68Zm9.1.84-3.66 2.5-3.67-2.5Zm-8.27 6v-5.63l4.61 3.14 4.6-3.14v5.63Z" style="opacity:.2"/><g style="opacity:.2"><path d="M213.67 228.46v-.93a2.14 2.14 0 0 0-2.13-2.13h-1.16a2.14 2.14 0 0 0-2.13 2.13v.93h-1.75v6.39h9.19v-6.39Zm-4.58-.93a1.29 1.29 0 0 1 1.29-1.29h1.16a1.29 1.29 0 0 1 1.29 1.29v.93h-3.74Zm5.77 6.48h-7.52v-4.71h7.52Z"/><path d="M210.86 231.91v.76h.48v-.76a.46.46 0 0 0 .23-.4.48.48 0 1 0-.95 0 .47.47 0 0 0 .24.4Z"/></g><path d="M351.66 145.65h-28.73a8.85 8.85 0 0 0-8.85 8.85v25a8.85 8.85 0 0 0 8.85 8.85h11.36l3 7.89 3-7.89h11.36a8.84 8.84 0 0 0 8.84-8.85v-25a8.84 8.84 0 0 0-8.83-8.85Z" style="fill:#407bff"/><path d="M351.66 145.65h-28.73a8.85 8.85 0 0 0-8.85 8.85v25a8.85 8.85 0 0 0 8.85 8.85h11.36l3 7.89 3-7.89h11.36a8.84 8.84 0 0 0 8.84-8.85v-25a8.84 8.84 0 0 0-8.83-8.85Z" style="fill:#fff;opacity:.7000000000000001"/><path d="M335.8 173.26a1.31 1.31 0 0 1-1-.46l-5.6-6.59a1.31 1.31 0 0 1 2-1.7l4.6 5.42 7.59-9a1.31 1.31 0 1 1 2 1.7l-8.59 10.17a1.33 1.33 0 0 1-1 .46Z" style="fill:#fff"/><circle cx="337.29" cy="166.89" r="14.26" transform="rotate(-45 337.288 166.89)" style="fill:#407bff"/><path style="fill:#263238" d="M390.69 416.75h6.6l-13.5-76.19h-6.6l13.5 76.19zM245.53 416.75h6.61l-13.5-76.19h-6.61l13.5 76.19z"/><path style="fill:#fff;opacity:.30000000000000004" d="M390.69 416.75h6.6l-13.5-76.19h-6.6l13.5 76.19zM245.53 416.75h6.61l-13.5-76.19h-6.61l13.5 76.19z"/><path transform="rotate(180 287.665 381.995)" style="fill:#263238" d="M188.09 378.65h199.15v6.69H188.09z"/><path transform="rotate(180 287.665 381.995)" style="fill:#fff;opacity:.5" d="M188.09 378.65h199.15v6.69H188.09z"/><path style="fill:#263238" d="M329.79 416.75h-6.6l13.5-76.19h6.6l-13.5 76.19zM184.64 416.75h-6.61l13.5-76.19h6.61l-13.5 76.19z"/><path style="fill:#fff;opacity:.30000000000000004" d="M329.79 416.75h-6.6l13.5-76.19h6.6l-13.5 76.19zM184.64 416.75h-6.61l13.5-76.19h6.61l-13.5 76.19z"/><path style="fill:#263238" d="M244.52 337.59h6.57l11-61.15h-6.57l-11 61.15z"/><path style="fill:#fff;opacity:.30000000000000004" d="M244.52 337.59h6.57l11-61.15h-6.57l-11 61.15z"/><path style="fill:#263238" d="M375.01 337.59h6.57l11-61.15h-6.57l-11 61.15zM309.76 337.59h6.57l11-61.15h-6.57l-11 61.15z"/><path style="fill:#fff;opacity:.30000000000000004" d="M375.01 337.59h6.57l11-61.15h-6.57l-11 61.15zM309.76 337.59h6.57l11-61.15h-6.57l-11 61.15z"/><path style="fill:#263238" d="M233.17 280.62h172.57l2.06-11.44H235.23l-2.06 11.44zM229.45 301.32h172.57l2.06-11.44H231.51l-2.06 11.44zM225.72 322.02h172.57l2.06-11.44H227.78l-2.06 11.44z"/><path transform="rotate(180 286.62 339.75)" style="fill:#263238" d="M176.66 335.79h219.93v7.92H176.66z"/><path style="fill:#fff;opacity:.5" d="M233.17 280.62h172.57l2.06-11.44H235.23l-2.06 11.44zM229.45 301.32h172.57l2.06-11.44H231.51l-2.06 11.44zM225.72 322.02h172.57l2.06-11.44H227.78l-2.06 11.44z"/><path transform="rotate(180 286.62 339.75)" style="fill:#fff;opacity:.5" d="M176.66 335.79h219.93v7.92H176.66z"/><path transform="rotate(180 259.62 339.75)" style="fill:#fff;opacity:.2" d="M176.66 335.79h165.93v7.92H176.66z"/><path d="M325.59 254.21c-4.65 4.91-15.8 16.94-22.7 16.73-7.28-.78-15.42-12-19.3-17.68a2.5 2.5 0 0 1 3.71-3.26c4.74 3.94 11.46 10.11 15.93 11.91-.68 0-.81.14-.19-.25 5.62-4 10.37-9.42 15.25-14.28 4.65-4.53 11.51 1.88 7.3 6.83Z" style="fill:#e9b376"/><path d="M323.05 245.25v14.33s-3 2.52-6.75 5.3c-1.86 1.39-3.89 2.84-5.79 4.07-2.89 1.88-5.49 3.26-6.81 3.18-3.94-.24-12.49-6.35-12.49-6.35l5.62-9.36s6.46 3.95 6.87 4.22 13.96-15.3 19.35-15.39Z" style="fill:#407bff"/><path d="M316.3 264.88c-1.86 1.39-3.89 2.84-5.79 4.07.45-8.22 4.32-11.38 4.32-11.38a14.27 14.27 0 0 1 1.47 7.31Z" style="opacity:.2"/><path d="M328.51 207.57c-6.9 5.63-6.08 21.83 1.67 32.46 0 0 16.56 1.39 25.76-2.73s-1-30.35-10.69-32.41a23.19 23.19 0 0 0-16.74 2.68Z" style="fill:#263238"/><path d="M328.92 224.4c-2.53-4.36-5-16.13 5.47-19.76 13.13-4.54 19 3.83 20.15 12.13s-3.54 14.57-12.22 13.95-11.66-3.3-13.4-6.32ZM314.82 257.57c-1.28 6.07 1 20.37 1.34 31.15l30.92 3.56c0-3.38.63-8.28 2.65-16.07 1.15-4.56 2.81-10.12 5.08-16.94.33-1 .68-2 1-3.11a7.69 7.69 0 0 0-6-10.33c-1.3-.21-2.68-.39-4.09-.53a104 104 0 0 0-15-.79c-1.63.05-3.33.17-4.95.31-5.77.49-9.77 7.07-10.95 12.75Z" style="fill:#263238"/><path d="M345.57 228.41c-1.55 4.74-3.62 13.47-.66 16.84 0 0-4.52-.92-14.51 4.54-2.59-4.16-.44-5.33-.44-5.33 5.53-1 5.89-5 5.44-8.73Z" style="fill:#ebb376"/><path d="m341.43 231.39-6 4.33a15 15 0 0 1 .12 2.67c2.09-.19 5.19-2.28 5.68-4.4a7.18 7.18 0 0 0 .2-2.6Z" style="opacity:.2"/><path d="M347.64 217.34c.11 7.91.32 11.26-3.36 15.6-5.52 6.53-15.27 4.93-17.74-2.79-2.22-7-2-18.73 5.46-22.44a10.8 10.8 0 0 1 15.64 9.63Z" style="fill:#ffb573"/><path d="M340.93 209.94c-2.19 2.75 2.8 11.41 6.74 12.88 7.65-2.52-.19-21.09-6.74-12.88Z" style="fill:#263238"/><path d="M331.56 206.25c-2.91 1.28-5.64 6.75-6 8.79 4.33.33 15.48-4.67 15.48-4.67s7.85 1.44 3.63-2.1-13.11-2.02-13.11-2.02ZM334.48 220.56c0 .64-.25 1.18-.67 1.22s-.8-.47-.85-1.11.26-1.18.68-1.22.79.47.84 1.11ZM327.23 221.1c0 .64-.25 1.19-.67 1.22s-.8-.46-.85-1.1.26-1.19.68-1.22.79.46.84 1.1Z" style="fill:#263238"/><path d="m326.57 220-1.57-.33s.88 1.16 1.57.33Z" style="fill:#263238"/><path d="M330.31 221.9a17.66 17.66 0 0 1-2 4.27 2.78 2.78 0 0 0 2.32.25Z" style="fill:#ed893e"/><path d="M334.33 228.67a6.38 6.38 0 0 1-.94.15.19.19 0 0 1 0-.38 5.07 5.07 0 0 0 4-2.3.18.18 0 0 1 .25-.07.19.19 0 0 1 .08.25 5.27 5.27 0 0 1-3.39 2.35Z" style="fill:#263238"/><path d="M350.31 224.4a5.76 5.76 0 0 1-2.76 3.45c-1.78 1-3.12-.53-3-2.45.11-1.72 1.17-4.3 3.15-4.48a2.6 2.6 0 0 1 2.61 3.48Z" style="fill:#ffb573"/><path d="M338 218.68a.39.39 0 0 1-.41-.18c-.9-1.49-3.14-1.67-3.16-1.67a.38.38 0 0 1 .05-.76c.11 0 2.66.22 3.76 2a.38.38 0 0 1-.13.52ZM325.56 217.73a.37.37 0 0 1-.36-.11.37.37 0 0 1 0-.53 3.71 3.71 0 0 1 3.28-1.05.37.37 0 0 1-.17.73 3 3 0 0 0-2.59.86.42.42 0 0 1-.16.1ZM333.82 219.48l-1.57-.33s.88 1.14 1.57.33Z" style="fill:#263238"/><path d="m305.72 248.69.75 2.34a2.85 2.85 0 0 0 1.85 1.85l4.12 1.32a5.32 5.32 0 0 0 4.83-.81l.85-.64c-1-4-4.95-7.54-4.95-7.54l-1-1.15a2.39 2.39 0 0 0-3.37-.27l-2.29 2a2.73 2.73 0 0 0-.79 2.9ZM278 250.83l.75 2.35a2.88 2.88 0 0 0 1.86 1.85l4.11 1.32a5.35 5.35 0 0 0 4.83-.81l.86-.64c-1-4-5-7.55-5-7.55l-1-1.14a2.38 2.38 0 0 0-3.38-.27l-2.29 2a2.75 2.75 0 0 0-.74 2.89Z" style="fill:#ebb376"/><path d="M337.8 263.39c2 5.86 7.07 10.23 11.93 12.82 1.15-4.56 2.81-10.12 5.08-16.94-3.05-4.26-7.32-7.29-12.76-6.47 0 0-6.26 4.66-4.25 10.59Z" style="opacity:.2"/><path d="m228.07 379.65 5.22 2.11s44.35-66.9 48.46-64.39c14.87 9.11 45.44 25.39 59.91 15.53s5.88-35.85 5.88-35.85-28.14-9.88-31.62-3.77a47.31 47.31 0 0 0-2.39 5.63c-.72 1.93-1.28 3.56-1.28 3.56-.85-.4-28.43-13.67-41.42-8.2-13.21 5.55-42.76 85.38-42.76 85.38Z" style="fill:#ebb376"/><path d="M324.25 336.47s-13.95.91-33.06-5.58c0 0-4.71 53.28-7.88 82.2l-6.4-.9s-10.89-78.94-8.74-88.56S282 313.37 282 313.37s22.27 16.37 42.25 23.1Z" style="fill:#ebb376"/><path d="M324.25 336.47a103.8 103.8 0 0 1-27.91-3.47l1.82-7.58c7.03 4.65 16.84 7.48 26.09 11.05Z" style="fill:#407bff"/><path d="M324.25 336.47a103.8 103.8 0 0 1-27.91-3.47l1.82-7.58c7.03 4.65 16.84 7.48 26.09 11.05Z" style="fill:#fff;opacity:.4"/><path style="fill:#407bff" d="m296.98 324.65-1.67 8.44 2.54.87 1.96-7.45-2.83-1.86z"/><path style="fill:#fff;isolation:isolate;opacity:.6000000000000001" d="m296.98 324.65-1.67 8.44 2.54.87 1.96-7.45-2.83-1.86z"/><path d="M270.49 357.18c-1-21-1.44-31.84 2-36.17a15.22 15.22 0 0 1 8.85-5.12c4.48 11.35 24 18.43 24.54 18.62 7.29 1.51 18.09 1.9 18.36 2a71.87 71.87 0 0 1-26.09-11A164.6 164.6 0 0 1 282 313.38s-11.65.63-13.8 10.25c-.88 3.94.42 19.46 2.26 36.45a26.53 26.53 0 0 0 .03-2.9Z" style="isolation:isolate;opacity:.2"/><path d="M222.86 375.26a.83.83 0 0 1 .2-.94.93.93 0 0 1 .67-.35 3.68 3.68 0 0 1 1.89.63c-.49-.64-.87-1.33-.7-1.76.11-.28.39-.43.84-.43a1.36 1.36 0 0 1 1.05.45c.87.95.68 3.12.68 3.22a.3.3 0 0 1 0 .1.1.1 0 0 1 0 .05.18.18 0 0 1-.07 0h-.08a14.3 14.3 0 0 1-2.79-.21c-.83-.09-1.49-.34-1.69-.76Zm.91-.82a.47.47 0 0 0-.35.17c-.23.28-.17.41-.15.45.24.48 1.91.72 3.32.76-.81-.61-2.08-1.45-2.82-1.38Zm2-1.57c-.13 0-.36 0-.41.14-.14.37.72 1.52 1.69 2.52a3.79 3.79 0 0 0-.58-2.36.88.88 0 0 0-.48-.28ZM270.65 407.62a.85.85 0 0 1-.22-.94.94.94 0 0 1 .46-.6 3.67 3.67 0 0 1 2-.24c-.72-.37-1.35-.83-1.38-1.29q0-.45.57-.75a1.34 1.34 0 0 1 1.14 0c1.2.48 2 2.52 2 2.61a.22.22 0 0 1 0 .11.14.14 0 0 1-.05.08l-.05.05a10.92 10.92 0 0 1-3.67 1.16 1.21 1.21 0 0 1-.8-.19Zm.48-1.14a.47.47 0 0 0-.25.31c-.09.35 0 .44.06.47.42.33 2-.17 3.32-.74-.99-.2-2.5-.41-3.13-.04Zm1.12-2.26c-.12.06-.32.17-.31.3 0 .39 1.29 1.06 2.61 1.54a3.82 3.82 0 0 0-1.54-1.87.83.83 0 0 0-.34-.07.92.92 0 0 0-.42.1Z" style="fill:#263238"/><path d="M236.58 379.51c.29-.66-8-3.84-8-3.84s-7.23 2.74-12.54 1.66-4 3 1.4 5.48l13.22 6.1c3.85 1.75 2.97-2.58 5.92-9.4ZM284.87 405.56c0-.72-8.83-.05-8.83-.05s-5.36 5.58-10.61 6.88-2.27 4.43 3.62 4.36l14.56-.18c4.18-.05 1.52-3.57 1.26-11.01Z" style="fill:#263238"/><path d="M347.54 297.05s-28.14-9.88-31.62-3.77a49 49 0 0 0-2.39 5.63c-.72 1.93-1.28 3.56-1.28 3.56l-2.31-1.06-9.42 28.13c15 8.32 36.17 9.28 44.85 3.37 14.44-9.86 2.17-35.86 2.17-35.86Z" style="fill:#407bff"/><g style="opacity:.4"><path d="M347.54 297.05s-28.14-9.88-31.62-3.77a49 49 0 0 0-2.39 5.63c-.72 1.93-1.28 3.56-1.28 3.56l-2.31-1.06-9.42 28.13c15 8.32 36.17 9.28 44.85 3.37 14.44-9.86 2.17-35.86 2.17-35.86Z" style="fill:#fff"/></g><path d="m312.25 302.47 16.23 6.89s-8.33-7-15-10.45c-.67 1.93-1.23 3.56-1.23 3.56Z" style="isolation:isolate;opacity:.30000000000000004"/><path style="fill:#407bff" d="m315.52 294.05.57-6.94 31.45 4.18.41 6.7-32.43-3.94z"/><path style="fill:#fff;opacity:.4" d="m315.52 294.05.57-6.94 31.45 4.18.41 6.7-32.43-3.94z"/><path style="fill:#263238" d="m316.15 287.79 1.65.24-.51 5.41-1.36-.16.22-5.49zM319.36 288.25l17.73 2.58-.46 4.92-17.77-2.12.5-5.38zM347.54 297.05l-9.35-1.11.46-4.88 8.44 1.22.45 4.77z"/><path style="isolation:isolate;opacity:.2" d="m316.15 287.79 1.65.24-.51 5.41-1.36-.16.22-5.49zM319.36 288.25l17.73 2.58-.46 4.92-17.77-2.12.5-5.38zM347.54 297.05l-9.35-1.11.46-4.88 8.44 1.22.45 4.77z"/><path d="M328.75 295.46h-.19l-5.05-.67a1.43 1.43 0 0 1-.95-.55 1.41 1.41 0 0 1-.29-1.06l.45-3.38a1.48 1.48 0 0 1 .55-1 1.44 1.44 0 0 1 1.06-.28l5.05.67a1.43 1.43 0 0 1 1.24 1.61l-.45 3.38a1.43 1.43 0 0 1-1.42 1.28Zm-4.61-5.92a.43.43 0 0 0-.26.09.46.46 0 0 0-.17.29l-.44 3.38a.41.41 0 0 0 .08.32.46.46 0 0 0 .29.17l5.05.67a.44.44 0 0 0 .49-.38l.45-3.38a.45.45 0 0 0-.09-.32.46.46 0 0 0-.29-.17l-5.05-.67Z" style="fill:#fff"/><path d="M329 292.78h-.08l-1.78-.29a.49.49 0 0 1-.41-.57.51.51 0 0 1 .57-.42l1.78.29a.5.5 0 0 1-.08 1Z" style="fill:#fff"/><path style="fill:#407bff" d="m308.58 299.46 2.62 1.38-8.89 30.22-3.73-.74 10-30.86z"/><path style="fill:#fff;isolation:isolate;opacity:.6000000000000001" d="m308.58 299.46 2.62 1.38-8.89 30.22-3.73-.74 10-30.86z"/><path d="M306.48 269h-22a1.71 1.71 0 0 1-1.67-1.54l-3.07-29.25a1.39 1.39 0 0 1 1.4-1.54h22a1.72 1.72 0 0 1 1.68 1.54l3.06 29.25a1.38 1.38 0 0 1-1.4 1.54Z" style="fill:#263238"/><path d="M306.48 269h-22a1.71 1.71 0 0 1-1.67-1.54l-3.07-29.25a1.39 1.39 0 0 1 1.4-1.54h22a1.72 1.72 0 0 1 1.68 1.54l3.06 29.25a1.38 1.38 0 0 1-1.4 1.54Z" style="fill:#fff;opacity:.6000000000000001"/><path d="M305.56 269h-21.11a1.71 1.71 0 0 1-1.67-1.54l-3.07-29.25a1.39 1.39 0 0 1 1.4-1.54h21.11a1.71 1.71 0 0 1 1.67 1.54l3.11 29.2a1.38 1.38 0 0 1-1.44 1.59Z" style="fill:#fff;opacity:.2"/><path d="M292.71 250.39a2.15 2.15 0 0 0-2.17 2.39 2.65 2.65 0 0 0 2.59 2.4 2.16 2.16 0 0 0 2.17-2.4 2.66 2.66 0 0 1-2.59-2.39Z" style="fill:#263238"/><path d="M297.48 238.94h-11.64a1.54 1.54 0 0 1-1.36-.88l-.7-1.44h15.36l-.45 1.44a1.24 1.24 0 0 1-1.21.88Z" style="opacity:.30000000000000004"/><path d="M353.66 305.87h-4.09s-5.11-15.34-8.09-28.34a94.31 94.31 0 0 1-1.91-10.43 29.9 29.9 0 0 1 1-11.58 29 29 0 0 1 5.18-10.22l-.83-.05c7.74-.08 11.92 2.6 12.44 7.42s-8 33.42-8.44 37.24 4.74 15.96 4.74 15.96ZM327.24 244.71s-8.19 12.9-10.38 18.38-.93 21.18-.93 21.18-4.19-18.89-1.5-28.25 7.36-11.28 12.81-11.31Z" style="fill:#407bff"/><path d="M355.28 256.34c-4.31 6.18-14.6 20.69-23.46 17.29-4.67-2.13-8-6-11.09-9.75a79.72 79.72 0 0 1-7.21-10.78 2.49 2.49 0 0 1 4-2.95c2.84 2.95 5.8 5.91 8.75 8.65 2.57 2.32 5.87 5.34 8.85 6.43a1.9 1.9 0 0 0-.66-.17c-.17 0-.13 0 0-.11 5-3.42 8.84-9.3 12.55-14.19 3.86-5.33 11.77 0 8.29 5.58Z" style="fill:#e9b376"/><path d="M354.2 260s-7.2 12.28-12.72 17.49a94.31 94.31 0 0 1-1.91-10.43 29.9 29.9 0 0 1 1-11.58l5.7-4.7c2.83-2.33 7.93 9.22 7.93 9.22Z" style="opacity:.2"/><path d="M354.71 248.68c3.77 2 2.63 7.47-2.31 13.93s-13.88 15.19-18.58 13.6-10-7.84-10-7.84l3.43-9.68s6.73 5.11 8.13 4.85 8.26-9.14 10.24-11.89 5-5.18 9.09-2.97Z" style="fill:#407bff"/><path d="m284.43 249.25-.14 1.92a2.2 2.2 0 0 1-1.87 2l-2.61.39.62-7 2.18.38a2.19 2.19 0 0 1 1.82 2.31Z" style="fill:#ffb573"/></svg>