<svg xmlns="http://www.w3.org/2000/svg" width="32" height="32">
    <path style="stroke:none;fill-rule:evenodd;fill-opacity:1" d="M15.523 5.426c-.468.164-.855.726-.855 1.242 0 .105.039.312.086.457.078.238.414.594 3.719 3.902l3.632 3.641H14.29c-8.781 0-8.129-.031-8.559.398a1.31 1.31 0 0 0 0 1.868c.43.43-.222.398 8.56.398h7.815l-3.632 3.64c-3.305 3.31-3.641 3.665-3.72 3.903-.171.52-.058 1.023.313 1.395.371.367.871.48 1.391.308.242-.078.68-.5 5.11-4.918 5.257-5.246 5.097-5.07 5.097-5.66 0-.59.16-.414-5.098-5.66-4.43-4.418-4.867-4.84-5.109-4.918a1.37 1.37 0 0 0-.934.004"/>
</svg>
